<?xml version="1.0" encoding="utf-8"?>
<!-- Generator: Adobe Illustrator 26.2.1, SVG Export Plug-In . SVG Version: 6.00 Build 0)  -->
<svg version="1.1" id="Layer_1" xmlns="http://www.w3.org/2000/svg" xmlns:xlink="http://www.w3.org/1999/xlink" x="0px" y="0px"
	 viewBox="0 0 297.8 106.61" style="enable-background:new 0 0 297.8 106.61;" xml:space="preserve">
<style type="text/css">
	.st0{fill:#911A1D;}
	.st1{fill:#1F2B5C;}
	.st2{fill:#FFFFFF;}
</style>
<g>
	<polygon class="st2" points="0,58.41 1.34,58.41 1.34,28.25 29.09,28.25 29.09,26.92 0,26.92 	"/>
	<polygon class="st2" points="72.35,105.28 44.6,105.28 44.6,106.61 73.69,106.61 73.69,79.93 72.35,79.93 	"/>
	<path class="st2" d="M79.13,54.14c-0.08,1.37-0.65,2.57-1.22,3.75c-2.33,4.84-5.4,9.17-9.04,13.11
		c-3.92,4.24-8.27,7.98-13.02,11.26c-5.16,3.57-10.6,6.63-16.33,9.18c-0.17,0.07-0.31,0.28-0.6,0.11c1.04-1.42,2.12-2.79,3.01-4.3
		c2.11-3.62,3.62-7.4,3.41-11.7c-0.13-2.54-1.01-4.87-1.93-7.19c-0.97-2.44-2.09-4.82-3.02-7.27c-1.92-5.06,0.25-8.58,4.62-10.57
		c4.52-2.06,9.29-3.44,13.92-5.2c6.37-2.42,12.49-5.31,17.83-9.65c1.47-1.2,2.87-2.49,4.12-3.92c0.15-0.17,0.25-0.41,0.58-0.41
		c0.04,0.55-0.26,1.01-0.45,1.48c-2.45,6.09-5.79,11.62-10.5,16.24c-2.99,2.94-6.43,5.33-9.78,7.83c-2.37,1.76-4.83,3.39-6.97,5.45
		c-0.66,0.63-1.09,1.42-1.64,2.13c-0.88,1.15,0.96,3.46,2.47,3.52c1.97,0.08,3.82-0.33,5.63-1c6.38-2.37,12.14-5.75,16.97-10.59
		C77.87,55.67,78.48,54.88,79.13,54.14z"/>
	<path class="st2" d="M12.66,105.28c3.27-2.76,6.42-5.6,9.06-8.96c1.29-1.63,2.4-3.37,3.3-5.26c1.92-4,1.83-7.89-0.32-11.81
		c-2.12-3.87-4.94-7.25-7.36-10.91c-2.23-3.38-4.36-6.79-5.06-10.89c-0.55-3.22,0.23-6.12,1.99-8.79c2.01-3.05,4.85-5.22,7.88-7.14
		c7.23-4.6,15.1-7.93,22.92-11.35c10.33-4.52,20.8-8.74,30.61-14.35c5.23-2.99,10.24-6.31,14.21-10.95
		c1.24-1.45,2.23-3.06,3.13-4.87c-0.4,4.25-2.74,10.59-5.54,15.34c-5,8.46-12.07,14.7-20.58,19.48c-8.1,4.55-16.6,8.25-25.02,12.13
		c-2.2,1.01-4.35,2.13-6.32,3.57c-3.29,2.4-4.19,4.97-3.03,8.91c0.98,3.32,2.75,6.3,4.25,9.39c1.23,2.54,2.33,5.11,2.79,7.92
		c0.81,4.98-0.96,9.14-4.22,12.74c-5.63,6.22-12.15,11.26-19.86,14.69C14.15,104.77,15.01,104.36,12.66,105.28z"/>
	<g>
		<path class="st2" d="M93.06,39.39h26.79v5.21H98.42v16.75h21.44v5.21H98.42v26.27h-5.36V39.39z"/>
		<path class="st2" d="M169.57,73.18c0,11.24-8.71,20.69-20.62,20.69s-20.62-9.45-20.62-20.69c0-11.31,8.78-20.91,20.62-20.91
			S169.57,61.87,169.57,73.18z M133.55,73.25c0,8.63,6.48,15.7,15.41,15.7c8.86,0,15.41-7.07,15.41-15.7c0-8.78-7-16.08-15.41-16.08
			C140.47,57.18,133.55,64.47,133.55,73.25z"/>
		<path class="st2" d="M219.21,84.86c-3.87,5.88-10.57,8.93-18.53,8.93c-13.03,0-21.73-9.38-21.73-20.39
			c0-11.61,9.08-21.14,22.1-21.14c7.59,0,14.51,3.13,18.16,9.23l-4.09,2.53c-3.5-4.61-8.34-6.85-14.29-6.85
			c-10.05,0-16.67,7.37-16.67,15.85c0,8.63,6.55,16.15,16.75,16.15c5.73,0,10.49-2.31,14.22-6.92L219.21,84.86z"/>
		<path class="st2" d="M259.55,53.31h5.36v20.47c0,13.32-6.03,20.02-17.34,20.02c-11.31,0-17.42-6.7-17.42-20.02V53.31h5.36v19.28
			c0,4.17,0,7.59,1.12,9.97c1.86,4.02,5.95,6.33,10.94,6.33c3.65,0,6.85-1.34,8.93-3.5c3.13-3.35,3.05-7.15,3.05-12.8V53.31z"/>
		<path class="st2" d="M277.4,84.57c2.53,2.83,5.28,4.39,8.26,4.39c3.87,0,7.29-2.83,7.29-6.55c0-2.31-1.34-4.47-3.28-5.51
			c-9.08-5.06-13.69-7.22-13.69-14.14c0-6.25,4.84-10.49,10.87-10.49c4.32,0,7.59,2.08,10.94,5.36l-3.28,3.35
			c-2.38-2.31-4.76-3.8-7.96-3.8c-3.27,0-5.95,2.31-5.95,5.28c0,2.01,1.26,4.24,3.05,5.28c9.08,5.28,14.14,7.29,14.14,14.44
			c0,6.18-4.76,11.68-11.91,11.68c-4.39,0-8.86-2.01-11.69-5.66L277.4,84.57z"/>
	</g>
</g>
</svg>
