<?xml version="1.0" encoding="UTF-8"?><svg id="Layer_1" xmlns="http://www.w3.org/2000/svg" xmlns:xlink="http://www.w3.org/1999/xlink" viewBox="0 0 669.08 349.12"><defs><style>.cls-1{letter-spacing:-.01em;}.cls-2{font-family:BoucherieSans, 'Boucherie Sans';font-size:60px;}.cls-2,.cls-3,.cls-4{fill:#5784bb;}.cls-5{fill:url(#GradientFill_65);}.cls-5,.cls-6,.cls-7,.cls-8,.cls-9,.cls-10,.cls-11,.cls-12,.cls-13,.cls-14,.cls-15,.cls-16,.cls-17,.cls-18,.cls-19,.cls-20,.cls-21,.cls-22,.cls-23,.cls-24,.cls-25,.cls-26,.cls-27,.cls-28,.cls-29,.cls-30,.cls-31,.cls-32,.cls-33,.cls-34,.cls-35,.cls-36,.cls-37,.cls-38,.cls-39,.cls-40,.cls-41,.cls-42,.cls-43,.cls-44,.cls-45,.cls-46,.cls-47,.cls-48,.cls-49,.cls-50,.cls-51,.cls-52,.cls-53,.cls-54,.cls-55,.cls-56,.cls-57,.cls-58,.cls-59,.cls-60,.cls-61,.cls-62,.cls-63,.cls-64,.cls-65,.cls-66,.cls-67,.cls-68,.cls-69,.cls-70,.cls-71,.cls-72,.cls-73,.cls-74,.cls-75,.cls-76,.cls-77,.cls-78,.cls-79,.cls-80,.cls-81,.cls-82,.cls-83,.cls-84,.cls-85,.cls-86,.cls-87,.cls-88,.cls-89,.cls-90,.cls-91,.cls-92,.cls-93,.cls-94,.cls-95,.cls-96,.cls-97,.cls-98,.cls-99,.cls-100,.cls-101,.cls-102,.cls-103,.cls-104,.cls-105,.cls-106,.cls-107,.cls-108,.cls-109,.cls-110,.cls-111,.cls-112,.cls-113,.cls-114,.cls-115,.cls-116,.cls-117,.cls-118,.cls-119,.cls-120,.cls-121,.cls-122,.cls-123,.cls-124,.cls-125,.cls-126,.cls-127,.cls-128,.cls-129,.cls-130{fill-rule:evenodd;}.cls-6{fill:url(#GradientFill_74);}.cls-7{fill:url(#GradientFill_71);}.cls-8{fill:url(#GradientFill_19);}.cls-9{fill:url(#GradientFill_73);}.cls-10{fill:url(#GradientFill_70);}.cls-11{fill:url(#GradientFill_72);}.cls-12{fill:url(#GradientFill_69);}.cls-13{fill:url(#GradientFill_67);}.cls-14{fill:url(#GradientFill_68);}.cls-15{fill:url(#GradientFill_34);}.cls-16{fill:url(#GradientFill_25);}.cls-17{fill:url(#GradientFill_26);}.cls-18{fill:url(#GradientFill_16);}.cls-19{fill:url(#GradientFill_20);}.cls-20{fill:url(#GradientFill_22);}.cls-21{fill:url(#GradientFill_46);}.cls-22{fill:url(#GradientFill_49);}.cls-131{letter-spacing:0em;}.cls-132{letter-spacing:-.03em;}.cls-133{fill:#fff;}.cls-134,.cls-109{fill:#200;}.cls-135{fill:#5a6870;}.cls-23{fill:url(#GradientFill_26-30);}.cls-24{fill:url(#GradientFill_26-29);}.cls-25{fill:url(#GradientFill_26-28);}.cls-26{fill:url(#GradientFill_26-25);}.cls-27{fill:url(#GradientFill_26-24);}.cls-28{fill:url(#GradientFill_26-27);}.cls-29{fill:url(#GradientFill_26-20);}.cls-30{fill:url(#GradientFill_26-21);}.cls-31{fill:url(#GradientFill_26-26);}.cls-32{fill:url(#GradientFill_26-23);}.cls-33{fill:url(#GradientFill_26-22);}.cls-34{fill:url(#GradientFill_26-10);}.cls-35{fill:url(#GradientFill_26-12);}.cls-36{fill:url(#GradientFill_26-14);}.cls-37{fill:url(#GradientFill_26-18);}.cls-38{fill:url(#GradientFill_26-17);}.cls-39{fill:url(#GradientFill_26-13);}.cls-40{fill:url(#GradientFill_26-11);}.cls-41{fill:url(#GradientFill_26-16);}.cls-42{fill:url(#GradientFill_26-15);}.cls-43{fill:url(#GradientFill_26-19);}.cls-44{fill:url(#GradientFill_4-7);}.cls-45{fill:url(#GradientFill_4-4);}.cls-46{fill:url(#GradientFill_4-6);}.cls-47{fill:url(#GradientFill_4-5);}.cls-48{fill:url(#GradientFill_4-8);}.cls-49{fill:url(#GradientFill_4-9);}.cls-50{fill:url(#GradientFill_4-2);}.cls-51{fill:url(#GradientFill_4-3);}.cls-136{fill:url(#GradientFill_21-4);}.cls-137{fill:url(#GradientFill_21-5);}.cls-138{fill:url(#GradientFill_21-2);}.cls-52{fill:url(#GradientFill_34-2);}.cls-53{fill:url(#GradientFill_20-2);}.cls-54{fill:url(#GradientFill_20-3);}.cls-55{fill:url(#GradientFill_20-4);}.cls-56{fill:url(#GradientFill_21-3);}.cls-57{fill:url(#GradientFill_26-7);}.cls-58{fill:url(#GradientFill_26-8);}.cls-59{fill:url(#GradientFill_26-2);}.cls-60{fill:url(#GradientFill_26-9);}.cls-61{fill:url(#GradientFill_26-4);}.cls-62{fill:url(#GradientFill_26-3);}.cls-63{fill:url(#GradientFill_26-5);}.cls-64{fill:url(#GradientFill_26-6);}.cls-65{fill:url(#GradientFill_19-3);}.cls-66{fill:url(#GradientFill_19-2);}.cls-67{fill:url(#GradientFill_25-2);}.cls-68{fill:url(#GradientFill_25-3);}.cls-69{fill:url(#GradientFill_25-4);}.cls-70{fill:url(#GradientFill_25-5);}.cls-71{fill:url(#GradientFill_25-6);}.cls-72{fill:url(#GradientFill_25-7);}.cls-73{fill:url(#GradientFill_22-2);}.cls-74{fill:url(#GradientFill_22-3);}.cls-75{fill:url(#GradientFill_16-2);}.cls-76{fill:url(#GradientFill_4-19);}.cls-77{fill:url(#GradientFill_4-16);}.cls-78{fill:url(#GradientFill_4-13);}.cls-79{fill:url(#GradientFill_4-14);}.cls-80{fill:url(#GradientFill_4-11);}.cls-81{fill:url(#GradientFill_4-18);}.cls-82{fill:url(#GradientFill_4-15);}.cls-83{fill:url(#GradientFill_4-17);}.cls-84{fill:url(#GradientFill_4-10);}.cls-85{fill:url(#GradientFill_4-12);}.cls-86{fill:url(#GradientFill_4-21);}.cls-87{fill:url(#GradientFill_4-31);}.cls-88{fill:url(#GradientFill_4-32);}.cls-89{fill:url(#GradientFill_4-33);}.cls-90{fill:url(#GradientFill_4-27);}.cls-91{fill:url(#GradientFill_4-28);}.cls-92{fill:url(#GradientFill_4-22);}.cls-93{fill:url(#GradientFill_4-20);}.cls-94{fill:url(#GradientFill_4-25);}.cls-95{fill:url(#GradientFill_4-26);}.cls-96{fill:url(#GradientFill_4-23);}.cls-97{fill:url(#GradientFill_4-24);}.cls-98{fill:url(#GradientFill_4-29);}.cls-99{fill:url(#GradientFill_4-30);}.cls-100{fill:url(#GradientFill_4-34);}.cls-101{fill:#f9f1c8;}.cls-102{fill:#302211;}.cls-103{fill:#563603;}.cls-104{fill:#574229;}.cls-105{fill:#765c43;}.cls-106{fill:#5f2c1c;}.cls-107{fill:#8a7647;}.cls-108{fill:#402a2c;}.cls-110{fill:#c6836b;}.cls-111{fill:#d59277;}.cls-112{fill:#dd9e82;}.cls-113{fill:#b07058;}.cls-114{fill:#d1c088;}.cls-115{fill:#ced7dd;}.cls-116{fill:#b39e66;}.cls-117{fill:#6b7b83;}.cls-118{fill:#9a7057;}.cls-119{fill:#6c5237;}.cls-120{fill:#6c543c;}.cls-121{fill:#ba8d6c;}.cls-122{fill:#906847;}.cls-123{fill:#eadaa7;}.cls-124{fill:url(#GradientFill_2);}.cls-125{fill:url(#GradientFill_3);}.cls-126{fill:url(#GradientFill_7);}.cls-127{fill:url(#GradientFill_6);}.cls-128{fill:url(#GradientFill_4);}.cls-129{fill:url(#GradientFill_5);}.cls-3{font-size:34.03px;}.cls-3,.cls-4{font-family:Impact, Impact;}.cls-4{font-size:34.03px;}.cls-139{fill:url(#GradientFill_21);}</style><linearGradient id="GradientFill_74" x1="621.31" y1="283.67" x2="622.31" y2="340.94" gradientTransform="translate(647.95) rotate(-180) scale(1 -1)" gradientUnits="userSpaceOnUse"><stop offset="0" stop-color="#603d0b"/><stop offset="1" stop-color="#4b2c00"/></linearGradient><linearGradient id="GradientFill_22" x1="463.46" y1="288.9" x2="464.94" y2="373.74" gradientTransform="translate(647.95) rotate(-180) scale(1 -1)" gradientUnits="userSpaceOnUse"><stop offset="0" stop-color="#6b4512"/><stop offset="1" stop-color="#301400"/></linearGradient><linearGradient id="GradientFill_73" x1="622.44" y1="283.77" x2="622.81" y2="304.89" gradientTransform="translate(647.95) rotate(-180) scale(1 -1)" gradientUnits="userSpaceOnUse"><stop offset="0" stop-color="#dee8ed"/><stop offset="1" stop-color="#909aa0"/></linearGradient><linearGradient id="GradientFill_72" x1="364.59" y1="286.34" x2="290.48" y2="275.93" gradientTransform="translate(647.95) rotate(-180) scale(1 -1)" gradientUnits="userSpaceOnUse"><stop offset="0" stop-color="#727d83"/><stop offset="1" stop-color="#b6c1c8"/></linearGradient><linearGradient id="GradientFill_2" x1="329.75" y1="265.43" x2="327.69" y2="280.12" gradientTransform="translate(647.95) rotate(-180) scale(1 -1)" gradientUnits="userSpaceOnUse"><stop offset="0" stop-color="#a7b6be"/><stop offset="1" stop-color="#e9eef1"/></linearGradient><linearGradient id="GradientFill_3" x1="295.11" y1="267.2" x2="362.57" y2="276.68" gradientTransform="translate(647.95) rotate(-180) scale(1 -1)" gradientUnits="userSpaceOnUse"><stop offset="0" stop-color="#727d83"/><stop offset="1" stop-color="#9eacb4"/></linearGradient><linearGradient id="GradientFill_4" x1="367.33" y1="280.89" x2="367.33" y2="280.89" gradientTransform="translate(647.95) rotate(-180) scale(1 -1)" gradientUnits="userSpaceOnUse"><stop offset="0" stop-color="#a3aeb4"/><stop offset="1" stop-color="#d8e1e7"/></linearGradient><linearGradient id="GradientFill_4-2" x1="368.34" y1="281.03" x2="368.34" y2="281.03" xlink:href="#GradientFill_4"/><linearGradient id="GradientFill_4-3" x1="367.03" y1="280.85" x2="367.04" y2="280.84" xlink:href="#GradientFill_4"/><linearGradient id="GradientFill_4-4" x1="367.95" y1="280.98" x2="367.95" y2="280.97" xlink:href="#GradientFill_4"/><linearGradient id="GradientFill_4-5" x1="367.77" y1="280.95" x2="367.77" y2="280.94" xlink:href="#GradientFill_4"/><linearGradient id="GradientFill_4-6" x1="365.15" y1="287.39" x2="365.15" y2="287.38" xlink:href="#GradientFill_4"/><linearGradient id="GradientFill_4-7" x1="367.12" y1="287.67" x2="367.12" y2="287.67" xlink:href="#GradientFill_4"/><linearGradient id="GradientFill_4-8" x1="364.84" y1="287.35" x2="364.84" y2="287.34" xlink:href="#GradientFill_4"/><linearGradient id="GradientFill_4-9" x1="367.72" y1="287.76" x2="367.72" y2="287.75" xlink:href="#GradientFill_4"/><linearGradient id="GradientFill_4-10" x1="367.55" y1="287.73" x2="367.55" y2="287.73" xlink:href="#GradientFill_4"/><linearGradient id="GradientFill_4-11" x1="366.44" y1="280.77" x2="366.44" y2="280.75" xlink:href="#GradientFill_4"/><linearGradient id="GradientFill_4-12" x1="368.6" y1="281.07" x2="368.6" y2="281.07" xlink:href="#GradientFill_4"/><linearGradient id="GradientFill_4-13" x1="364.48" y1="280.48" x2="364.48" y2="280.48" xlink:href="#GradientFill_4"/><linearGradient id="GradientFill_4-14" x1="364.7" y1="280.51" x2="364.7" y2="280.51" xlink:href="#GradientFill_4"/><linearGradient id="GradientFill_4-15" x1="364.89" y1="280.54" x2="364.89" y2="280.54" xlink:href="#GradientFill_4"/><linearGradient id="GradientFill_4-16" x1="365.85" y1="287.5" x2="365.86" y2="287.48" xlink:href="#GradientFill_4"/><linearGradient id="GradientFill_4-17" x1="366.53" y1="287.59" x2="366.53" y2="287.58" xlink:href="#GradientFill_4"/><linearGradient id="GradientFill_4-18" x1="364.55" y1="287.31" x2="364.55" y2="287.3" xlink:href="#GradientFill_4"/><linearGradient id="GradientFill_4-19" x1="364.42" y1="287.29" x2="364.42" y2="287.28" xlink:href="#GradientFill_4"/><linearGradient id="GradientFill_4-20" x1="366.67" y1="287.61" x2="366.68" y2="287.6" xlink:href="#GradientFill_4"/><linearGradient id="GradientFill_4-21" x1="367.35" y1="287.7" x2="367.35" y2="287.7" xlink:href="#GradientFill_4"/><linearGradient id="GradientFill_4-22" x1="367.48" y1="287.72" x2="367.48" y2="287.72" xlink:href="#GradientFill_4"/><linearGradient id="GradientFill_4-23" x1="366.85" y1="287.63" x2="366.85" y2="287.63" xlink:href="#GradientFill_4"/><linearGradient id="GradientFill_4-24" x1="364.92" y1="287.52" x2="366.02" y2="280.54" xlink:href="#GradientFill_4"/><linearGradient id="GradientFill_4-25" x1="364.23" y1="287.26" x2="364.23" y2="287.26" xlink:href="#GradientFill_4"/><linearGradient id="GradientFill_4-26" x1="365.64" y1="280.65" x2="365.65" y2="280.64" xlink:href="#GradientFill_4"/><linearGradient id="GradientFill_4-27" x1="365.08" y1="280.57" x2="365.08" y2="280.56" xlink:href="#GradientFill_4"/><linearGradient id="GradientFill_4-28" x1="367.02" y1="280.84" x2="367.02" y2="280.84" xlink:href="#GradientFill_4"/><linearGradient id="GradientFill_4-29" x1="365.49" y1="280.63" x2="365.49" y2="280.62" xlink:href="#GradientFill_4"/><linearGradient id="GradientFill_4-30" x1="364.02" y1="287.23" x2="364.02" y2="287.23" xlink:href="#GradientFill_4"/><linearGradient id="GradientFill_4-31" x1="363.87" y1="287.21" x2="363.87" y2="287.2" xlink:href="#GradientFill_4"/><linearGradient id="GradientFill_4-32" x1="363.83" y1="287.2" x2="363.83" y2="287.2" xlink:href="#GradientFill_4"/><linearGradient id="GradientFill_4-33" x1="364.77" y1="280.52" x2="364.78" y2="280.52" xlink:href="#GradientFill_4"/><linearGradient id="GradientFill_4-34" x1="363.6" y1="287.17" x2="363.6" y2="287.17" xlink:href="#GradientFill_4"/><linearGradient id="GradientFill_5" x1="327.95" y1="277.56" x2="329.82" y2="265.72" gradientTransform="translate(647.95) rotate(-180) scale(1 -1)" gradientUnits="userSpaceOnUse"><stop offset="0" stop-color="#00b8f1"/><stop offset="1" stop-color="#d3eefb"/></linearGradient><linearGradient id="GradientFill_6" x1="390.81" y1="293.58" x2="392.66" y2="281.95" gradientTransform="translate(647.95) rotate(-180) scale(1 -1)" gradientUnits="userSpaceOnUse"><stop offset="0" stop-color="#727d83"/><stop offset="1" stop-color="#c4cdd3"/></linearGradient><linearGradient id="GradientFill_7" x1="328.75" y1="273.18" x2="329.81" y2="266.51" gradientTransform="translate(647.95) rotate(-180) scale(1 -1)" gradientUnits="userSpaceOnUse"><stop offset="0" stop-color="#abe0f9"/><stop offset="1" stop-color="#f4fafd"/></linearGradient><linearGradient id="GradientFill_34" x1="544.15" y1="265.45" x2="626.41" y2="265.45" gradientTransform="translate(647.95) rotate(-180) scale(1 -1)" gradientUnits="userSpaceOnUse"><stop offset="0" stop-color="#3f2c16"/><stop offset="1" stop-color="#574633"/></linearGradient><linearGradient id="GradientFill_16" x1="440.04" y1="188.81" x2="364.58" y2="188.81" gradientTransform="translate(647.95) rotate(-180) scale(1 -1)" gradientUnits="userSpaceOnUse"><stop offset="0" stop-color="#fbc6a2"/><stop offset="1" stop-color="#e0997d"/></linearGradient><linearGradient id="GradientFill_19" x1="408.62" y1="172.58" x2="408.62" y2="172.88" gradientTransform="translate(647.95) rotate(-180) scale(1 -1)" gradientUnits="userSpaceOnUse"><stop offset="0" stop-color="#7c402e"/><stop offset="1" stop-color="#a15641"/></linearGradient><linearGradient id="GradientFill_19-2" x1="405.89" y1="148.15" x2="405.89" y2="193.99" xlink:href="#GradientFill_19"/><linearGradient id="GradientFill_20" x1="399.92" y1="181.32" x2="342.01" y2="181.32" gradientTransform="translate(647.95) rotate(-180) scale(1 -1)" gradientUnits="userSpaceOnUse"><stop offset="0" stop-color="#51561c"/><stop offset="1" stop-color="#7b7f33"/></linearGradient><linearGradient id="GradientFill_21" x1="386.54" y1="180.76" x2="348.53" y2="187.46" gradientTransform="translate(647.95) rotate(-180) scale(1 -1)" gradientUnits="userSpaceOnUse"><stop offset="0" stop-color="#847448"/><stop offset="1" stop-color="#b39c62"/></linearGradient><linearGradient id="GradientFill_22-2" x1="389.71" y1="247.94" x2="358.05" y2="247.94" xlink:href="#GradientFill_22"/><linearGradient id="GradientFill_22-3" x1="366.5" y1="250.85" x2="366.5" y2="234.41" xlink:href="#GradientFill_22"/><linearGradient id="GradientFill_20-2" x1="423.77" y1="164.64" x2="423.77" y2="128.88" xlink:href="#GradientFill_20"/><linearGradient id="GradientFill_21-2" x1="425.96" y1="160.91" x2="425.96" y2="129.4" xlink:href="#GradientFill_21"/><linearGradient id="GradientFill_26" x1="497.1" y1="214.31" x2="497.1" y2="139.11" gradientTransform="translate(647.95) rotate(-180) scale(1 -1)" gradientUnits="userSpaceOnUse"><stop offset="0" stop-color="#574229"/><stop offset="1" stop-color="#806a50"/></linearGradient><linearGradient id="GradientFill_71" x1="500.33" y1="319.72" x2="479.04" y2="319.72" gradientTransform="translate(647.95) rotate(-180) scale(1 -1)" gradientUnits="userSpaceOnUse"><stop offset="0" stop-color="#f0f4f7"/><stop offset="1" stop-color="#99a4aa"/></linearGradient><linearGradient id="GradientFill_65" x1="470.23" y1="265.62" x2="535.94" y2="265.62" gradientTransform="translate(647.95) rotate(-180) scale(1 -1)" gradientUnits="userSpaceOnUse"><stop offset="0" stop-color="#3f2c16"/><stop offset="1" stop-color="#6c5942"/></linearGradient><linearGradient id="GradientFill_34-2" x1="497.02" y1="237.44" x2="535.17" y2="237.44" xlink:href="#GradientFill_34"/><linearGradient id="GradientFill_19-3" x1="406.64" y1="218.22" x2="406.64" y2="197" xlink:href="#GradientFill_19"/><linearGradient id="GradientFill_21-3" x1="388.16" y1="105.2" x2="388.16" y2="95.47" xlink:href="#GradientFill_21"/><linearGradient id="GradientFill_20-3" x1="388.97" y1="176.88" x2="388.97" y2="103.6" xlink:href="#GradientFill_20"/><linearGradient id="GradientFill_25" x1="466.04" y1="227.42" x2="466.04" y2="139.07" gradientTransform="translate(647.95) rotate(-180) scale(1 -1)" gradientUnits="userSpaceOnUse"><stop offset="0" stop-color="#806444"/><stop offset="1" stop-color="#a68a6b"/></linearGradient><linearGradient id="GradientFill_46" x1="399.02" y1="296.68" x2="396.7" y2="280.2" gradientTransform="translate(647.95) rotate(-180) scale(1 -1)" gradientUnits="userSpaceOnUse"><stop offset="0" stop-color="#4d555b"/><stop offset="1" stop-color="#c4cdd3"/></linearGradient><linearGradient id="GradientFill_25-2" x1="428.37" y1="224.93" x2="428.37" y2="155.25" xlink:href="#GradientFill_25"/><linearGradient id="GradientFill_25-3" x1="466.95" y1="225.71" x2="398.61" y2="225.71" xlink:href="#GradientFill_25"/><linearGradient id="GradientFill_16-2" x1="422.13" y1="165.46" x2="404.46" y2="165.46" xlink:href="#GradientFill_16"/><linearGradient id="GradientFill_25-4" x1="486.82" y1="190.74" x2="616.06" y2="190.74" xlink:href="#GradientFill_25"/><linearGradient id="GradientFill_70" x1="465.67" y1="243.42" x2="430.37" y2="243.42" gradientTransform="translate(647.95) rotate(-180) scale(1 -1)" gradientUnits="userSpaceOnUse"><stop offset="0" stop-color="#6c5437"/><stop offset="1" stop-color="#886f4b"/></linearGradient><linearGradient id="GradientFill_25-5" x1="489.73" y1="152.94" x2="489.73" y2="123.87" xlink:href="#GradientFill_25"/><linearGradient id="GradientFill_69" x1="464" y1="227.42" x2="464" y2="142.37" gradientTransform="translate(647.95) rotate(-180) scale(1 -1)" gradientUnits="userSpaceOnUse"><stop offset="0" stop-color="#70573a"/><stop offset="1" stop-color="#9c8058"/></linearGradient><linearGradient id="GradientFill_26-2" x1="423.86" y1="175.45" x2="423.86" y2="172.8" xlink:href="#GradientFill_26"/><linearGradient id="GradientFill_26-3" x1="422.77" y1="187.19" x2="422.77" y2="184.42" xlink:href="#GradientFill_26"/><linearGradient id="GradientFill_26-4" x1="425.26" y1="211.41" x2="425.26" y2="208.77" xlink:href="#GradientFill_26"/><linearGradient id="GradientFill_26-5" x1="423.67" y1="179.39" x2="423.67" y2="176.68" xlink:href="#GradientFill_26"/><linearGradient id="GradientFill_26-6" x1="423.3" y1="163.76" x2="423.3" y2="161" xlink:href="#GradientFill_26"/><linearGradient id="GradientFill_26-7" x1="423.87" y1="171.5" x2="423.87" y2="168.87" xlink:href="#GradientFill_26"/><linearGradient id="GradientFill_26-8" x1="423.69" y1="167.63" x2="423.69" y2="164.93" xlink:href="#GradientFill_26"/><linearGradient id="GradientFill_26-9" x1="423.3" y1="183.29" x2="423.3" y2="180.56" xlink:href="#GradientFill_26"/><linearGradient id="GradientFill_26-10" x1="437.91" y1="194.37" x2="437.91" y2="192.67" xlink:href="#GradientFill_26"/><linearGradient id="GradientFill_26-11" x1="430.13" y1="193.39" x2="430.13" y2="191.93" xlink:href="#GradientFill_26"/><linearGradient id="GradientFill_26-12" x1="434.04" y1="193.8" x2="434.04" y2="192.22" xlink:href="#GradientFill_26"/><linearGradient id="GradientFill_26-13" x1="426.22" y1="193.18" x2="426.22" y2="191.85" xlink:href="#GradientFill_26"/><linearGradient id="GradientFill_26-14" x1="428.35" y1="208.98" x2="428.35" y2="206.37" xlink:href="#GradientFill_26"/><linearGradient id="GradientFill_26-15" x1="431.48" y1="206.63" x2="431.48" y2="204.05" xlink:href="#GradientFill_26"/><linearGradient id="GradientFill_26-16" x1="441.76" y1="195.14" x2="441.76" y2="193.33" xlink:href="#GradientFill_26"/><linearGradient id="GradientFill_26-17" x1="441.2" y1="199.99" x2="441.2" y2="197.53" xlink:href="#GradientFill_26"/><linearGradient id="GradientFill_26-18" x1="437.91" y1="202.15" x2="437.91" y2="199.63" xlink:href="#GradientFill_26"/><linearGradient id="GradientFill_26-19" x1="434.68" y1="204.36" x2="434.68" y2="201.8" xlink:href="#GradientFill_26"/><linearGradient id="GradientFill_26-20" x1="444.38" y1="197.98" x2="444.38" y2="195.8" xlink:href="#GradientFill_26"/><linearGradient id="GradientFill_26-21" x1="445.56" y1="196.12" x2="445.56" y2="194.19" xlink:href="#GradientFill_26"/><linearGradient id="GradientFill_26-22" x1="422.76" y1="159.91" x2="422.76" y2="157.14" xlink:href="#GradientFill_26"/><linearGradient id="GradientFill_26-23" x1="422.12" y1="193.36" x2="422.12" y2="191.88" xlink:href="#GradientFill_26"/><linearGradient id="GradientFill_26-24" x1="433.45" y1="220.88" x2="433.45" y2="218.51" xlink:href="#GradientFill_26"/><linearGradient id="GradientFill_26-25" x1="424.12" y1="214.08" x2="424.12" y2="211.33" xlink:href="#GradientFill_26"/><linearGradient id="GradientFill_26-26" x1="422.09" y1="191.06" x2="422.09" y2="188.24" xlink:href="#GradientFill_26"/><linearGradient id="GradientFill_26-27" x1="427" y1="216.65" x2="427" y2="213.98" xlink:href="#GradientFill_26"/><linearGradient id="GradientFill_26-28" x1="430.1" y1="218.95" x2="430.1" y2="216.4" xlink:href="#GradientFill_26"/><linearGradient id="GradientFill_26-29" x1="420.02" y1="283.77" x2="420.02" y2="247.69" xlink:href="#GradientFill_26"/><linearGradient id="GradientFill_20-4" x1="460.38" y1="256.21" x2="460.38" y2="141.14" xlink:href="#GradientFill_20"/><linearGradient id="GradientFill_26-30" x1="494.17" y1="242.87" x2="607.03" y2="242.87" xlink:href="#GradientFill_26"/><linearGradient id="GradientFill_68" x1="408.14" y1="164.79" x2="418.82" y2="164.79" gradientTransform="translate(647.95) rotate(-180) scale(1 -1)" gradientUnits="userSpaceOnUse"><stop offset="0" stop-color="#cb8369"/><stop offset="1" stop-color="#e9a98c"/></linearGradient><linearGradient id="GradientFill_21-4" x1="388.92" y1="166.5" x2="388.92" y2="112.18" xlink:href="#GradientFill_21"/><linearGradient id="GradientFill_21-5" x1="461.59" y1="255.58" x2="461.59" y2="141.48" xlink:href="#GradientFill_21"/><linearGradient id="GradientFill_25-6" x1="420.02" y1="287.9" x2="420.02" y2="244.23" xlink:href="#GradientFill_25"/><linearGradient id="GradientFill_25-7" x1="494.11" y1="243.18" x2="607.33" y2="243.18" xlink:href="#GradientFill_25"/><linearGradient id="GradientFill_49" x1="388.29" y1="242.66" x2="376.33" y2="242.66" gradientTransform="translate(647.95) rotate(-180) scale(1 -1)" gradientUnits="userSpaceOnUse"><stop offset="0" stop-color="#9a6f51"/><stop offset="1" stop-color="#6b451f"/></linearGradient><linearGradient id="GradientFill_67" x1="452.3" y1="310.2" x2="452.3" y2="350.84" gradientTransform="translate(647.95) rotate(-180) scale(1 -1)" gradientUnits="userSpaceOnUse"><stop offset="0" stop-color="#a4775d"/><stop offset="1" stop-color="#744829"/></linearGradient></defs><g><g><path class="cls-115" d="M372.21,337.2c19.94-1.01,43.78,0,37.24,4.99-12.87,9.82-41.79,6.86-56.75,5.09l5.5-9.83c4.1,.09,8.59,.02,14.01-.25Z"/><path class="cls-115" d="M336.04,335.81c5.95,.58,10.83,1.09,15.88,1.39l-5.7,9.34c-4.77-.44-10.73-.63-15.68-1.49-4.59-.8-8.35-4.01-5.72-7.29,1.54-1.92,6.98-2.36,11.21-1.94Z"/><path class="cls-115" d="M497.78,324.57c6.7,5.97-22.26,6.69-40.96,4.94-5.05-.47-8.64-.68-11.42-.7l3.27-8.5c15.25-1.63,40.21-3.67,49.11,4.26Z"/><path class="cls-115" d="M440.25,321.22c.81-.08,1.72-.17,2.72-.28l-3.59,8.16c-3.45,.41-6.11,1.15-12.18,1.65-4.03,.33-11.69,.43-9.65-3.34,3.1-5.74,16.99-5.64,22.69-6.19Z"/><path class="cls-115" d="M315.63,324.57c6.7,5.97-22.26,6.69-40.96,4.94-5.05-.47-8.64-.68-11.42-.7l3.27-8.5c15.25-1.63,40.21-3.67,49.11,4.26Z"/><path class="cls-115" d="M258.1,321.22c.81-.08,1.72-.17,2.72-.28l-3.59,8.16c-3.45,.41-6.11,1.15-12.18,1.65-4.03,.33-11.69,.43-9.65-3.34,3.1-5.74,16.99-5.64,22.69-6.19Z"/></g><g><path class="cls-6" d="M20.38,287.67s6.06,8.78,7.27,14.23c1.21,5.45-.23,17.22,3.94,22.71,8.72,1.78,17.18,6.34,20.59,12.42-9.68,4.38-33.83,2.97-42.45,.59-5.43-1.5-1.95-12.61-2.67-26.5-1.75,.07-1.98,.3-3.73,.37-2.65-8.09-4.11-15.67-2.88-24.77,15.24-4.97,19.94,.95,19.94,.95Z"/><path class="cls-20" d="M149.75,320.47c6.97-3.36,10.58-1.81,10.58-1.81,0,0,42.62-.26,64.52,22.71,0,0-21.16,5.16-61.42-1.55,.09,1.03,.17,3.08,.26,4.11-7.81,.84-15.12,.17-21.42-1.01,.11-10.62,.52-19.1,7.48-22.45Z"/><path class="cls-9" d="M33.57,300.38l-6.93,4.51s-10.11-5.29-9.54-17.18l7.58-3.95,8.89,16.62Z"/><g><path class="cls-11" d="M355.47,267.58c.3,2.63,1.3,9.12,1.46,10.22,.55,3.88-15.24,9.34-35.26,12.19-20.02,2.85-36.7,2.02-37.26-1.86-.16-1.09-.94-6.31-1.45-10.19,1.43-.83,70.94-10.74,72.51-10.35Z"/><path class="cls-124" d="M318.22,265.75c20.02-2.85,36.7-2.02,37.26,1.86,.55,3.88-15.24,9.34-35.26,12.19-20.02,2.85-36.7,2.02-37.26-1.86-.55-3.88,15.24-9.34,35.26-12.19Z"/><path class="cls-125" d="M318.35,266.62c18.25-2.6,33.4-2.33,33.81,.61s-14.05,7.43-32.3,10.03c-18.25,2.6-33.4,2.32-33.81-.61-.42-2.94,14.05-7.43,32.3-10.03Z"/><path class="cls-128" d="M280.5,280.9c.07-.01,.15-.02,.23-.03-.12,.02-.17,.02-.23,.03Z"/><path class="cls-50" d="M279.48,281.05c.07-.01,.15-.02,.24-.03-.09,.01-.17,.02-.24,.03Z"/><path class="cls-51" d="M280.73,280.87c.11-.02,.24-.03,.36-.05-.1,.01-.22,.03-.33,.05-.01,0-.03,0-.04,0Z"/><path class="cls-45" d="M279.9,280.99c-.06,0-.12,.02-.17,.02-.09,.01-.17,.02-.24,.03,.37-.05,.7-.1,1.01-.14-.26,.04-.45,.06-.6,.09Z"/><path class="cls-47" d="M279.9,280.99c.16-.02,.35-.05,.57-.08-.2,.03-.4,.06-.57,.08Z"/><path class="cls-46" d="M282.57,287.42c.16-.02,.31-.04,.46-.07-.14,.02-.3,.04-.46,.07Z"/><path class="cls-44" d="M280.68,287.69c.1-.01,.2-.03,.29-.04-.1,.01-.2,.03-.29,.04Z"/><path class="cls-48" d="M283.03,287.35c.06,0,.1-.01,.15-.02-.05,0-.1,.01-.15,.02Z"/><path class="cls-49" d="M280.29,287.74c-.16,.02-.18,.03,0,0h0Z"/><path class="cls-84" d="M280.29,287.74c.11-.02,.16-.02,.21-.03-.09,.01-.16,.02-.21,.03Z"/><path class="cls-80" d="M281.88,280.71c-.22,.03-.47,.07-.75,.11,.25-.04,.5-.07,.75-.11Z"/><path class="cls-85" d="M279.21,281.09s.08-.01,.27-.04c-.14,.02-.2,.03-.27,.04Z"/><path class="cls-78" d="M283.4,280.49c.16-.02,.18-.03,0,0h0Z"/><path class="cls-79" d="M283.4,280.49s-.07,0-.11,.02c-.07,0-.13,.02-.19,.03,.14-.02,.24-.03,.31-.04Z"/><path class="cls-82" d="M283.01,280.55s.06,0,.09-.01c-.06,0-.07,.01-.09,.01Z"/><path class="cls-77" d="M282.57,287.42c-.32,.05-.65,.09-.95,.14,.21-.03,.44-.06,.7-.1,.09-.01,.17-.02,.25-.04Z"/><path class="cls-83" d="M281.61,287.56c-.14,.02-.28,.04-.4,.06,.11-.02,.19-.03,.29-.04,.04,0,.07-.01,.11-.02Z"/><path class="cls-81" d="M283.61,287.27c-.13,.02-.27,.04-.43,.06,.19-.03,.31-.04,.43-.06Z"/><path class="cls-76" d="M283.8,287.25c-.06,0-.12,.02-.18,.03-.13,.02-.24,.03-.36,.05,.2-.03,.38-.05,.54-.08Z"/><path class="cls-93" d="M281.51,287.57c-.1,.01-.19,.03-.29,.04-.06,0-.12,.02-.18,.03,.15-.02,.3-.04,.47-.07Z"/><path class="cls-86" d="M280.68,287.69c-.06,0-.12,.02-.18,.03,.11-.02,.15-.02,.18-.03Z"/><path class="cls-92" d="M280.5,287.71c-.05,0-.11,.02-.16,.02,.07,0,.15-.02,.24-.03-.03,0-.06,0-.08,.01Z"/><path class="cls-96" d="M281.21,287.61c-.08,.01-.16,.02-.24,.03,.12-.02,.18-.02,.24-.03Z"/><path class="cls-97" d="M279.41,281.06c.14-.02,.22-.03,.31-.04,.05,0,.12-.02,.17-.02,.17-.02,.36-.05,.57-.08,.06,0,.13-.02,.2-.03,.04,0,.07-.01,.11-.02,.12-.02,.24-.03,.36-.05,.31-.04,.66-.09,1.06-.15,.19-.03,.37-.05,.53-.08,.13-.02,.24-.03,.33-.05,.09-.01,.17-.02,.24-.03,.13-.02,.25-.03,.38-.05,1.91,.81,2.53,5.38,.95,6.68-.06,0-.11,.02-.17,.02-.02,0-.05,0-.09,.01-.08,.01-.15,.02-.23,.03-.05,0-.11,.02-.17,.02-.05,0-.12,.02-.17,.02-.16,.02-.35,.05-.54,.08-.35,.05-.66,.09-.94,.13-.24,.03-.52,.07-.81,.12-.17,.02-.32,.05-.47,.07-.18,.03-.33,.05-.45,.06-.09,.01-.18,.03-.24,.03-.11,.02-.21,.03-.33,.05-.32-2.23-.63-4.45-.95-6.68,.05,0,.09-.01,.14-.02,.01,0,.08-.01,.2-.03Z"/><path class="cls-94" d="M283.82,287.24c-.07,0-.14,.02-.21,.03,.07,0,.12-.02,.18-.03,0,0,.02,0,.03,0Z"/><path class="cls-95" d="M282.19,280.66c-.1,.01-.2,.03-.31,.04,.34-.05,.61-.09,.84-.12-.19,.03-.36,.05-.53,.08Z"/><path class="cls-90" d="M282.72,280.59c.1-.01,.2-.03,.29-.04-.09,.01-.19,.03-.28,.04,0,0,0,0,0,0Z"/><path class="cls-91" d="M280.77,280.87c.11-.02,.23-.03,.33-.05-.09,.01-.21,.03-.33,.05Z"/><path class="cls-98" d="M282.19,280.66c.17-.02,.34-.05,.53-.08-.16,.02-.34,.05-.53,.08Z"/><path class="cls-99" d="M284.01,287.21c-.06,0-.13,.02-.19,.03,.05,0,.09-.01,.14-.02,.02,0,.03,0,.05,0Z"/><path class="cls-87" d="M284.14,287.2s-.08,.01-.12,.02c.01,0,.07,0,.12-.02Z"/><path class="cls-88" d="M284.21,287.19c-.06,0-.12,.02-.2,.03,.04,0,.08-.01,.12-.02,.03,0,.05,0,.07-.01Z"/><path class="cls-89" d="M283.1,280.53c.06,0,.13-.02,.19-.03-.07,0-.15,.02-.24,.03,.02,0,.03,0,.04,0Z"/><path class="cls-100" d="M284.46,287.15c.08-.01-.02,0-.25,.03,.07,0,.12-.02,.16-.02,.03,0,.06,0,.09-.01Z"/><path class="cls-129" d="M352.16,267.23c.42,2.94-14.05,7.43-32.3,10.03-18.25,2.6-33.4,2.32-33.81-.61,11.24-10.16,53.84-15.21,66.11-9.41Z"/><path class="cls-127" d="M281.64,289.6c-16.97,2.42-33.94,4.83-50.91,7.25-.51-3.56-1.01-7.12-1.52-10.68,16.97-2.42,33.94-4.83,50.91-7.25,2.47,1.38,3.47,8.69,1.52,10.68Z"/><path class="cls-117" d="M229.21,286.16c.71-.1,1.62,2.21,2.04,5.16,.42,2.95,.19,5.42-.52,5.52-.71,.1-1.62-2.21-2.04-5.16-.42-2.95-.19-5.42,.52-5.52Z"/><path class="cls-126" d="M319.75,266.63c17.98-2.3,27.57-.09,27.57-.09,0,0-7.15-.29-17.46,.42,1.15,.27,1.84,.67,1.92,1.19,.22,1.58-5.31,3.67-12.36,4.68-7.05,1-12.95,.54-13.17-1.04-.09-.6,.66-1.27,1.99-1.93-10.26,2.17-18.01,4.9-18.01,4.9,0,0,11.52-5.81,29.5-8.12Z"/></g><path class="cls-15" d="M70.66,244.19c-.27-8.22,.67-19.33,3.09-23.27,0,0,22.46,3.53,30.04,6.86-1.74,9.59-2.44,17.55-.81,32.29-18.17,9.99-38.63,24.47-64.38,49.91-13.02-10.91-17.87-26.66-16.96-39.38,21.2-13.83,34.31-20.72,49.02-26.41Z"/><rect class="cls-133" x="249.51" y="168.87" width="25.29" height="22.51"/><path class="cls-130" d="M268.34,178.9c3.63,0,6.58,2.94,6.58,6.58s-2.94,6.58-6.58,6.58-6.58-2.94-6.58-6.58,2.94-6.58,6.58-6.58Z"/><path class="cls-111" d="M271.59,183.96c-2.02-3.75-7.33-7.72-18.12-11,8.78-6.76,25.15-2.17,18.12,11Z"/><path class="cls-111" d="M268.56,187.16c-8.53,4.2-18.35-4.06-13.49-14.75,2.36,8.35,9.86,13.82,13.49,14.75Z"/><path class="cls-113" d="M271.59,183.96c-1.65-3.07-5.5-6.27-12.74-9.14-.62-1.38-1.11-2.71-1.51-3.98,8.88-3.26,20.34,1.71,14.26,13.11Z"/><path class="cls-18" d="M210.56,160.02c-6.91,32.88,1.85,63.39,1.85,63.39,32.88,13.32,45.52-13.91,47.21-18.38,3.62,4.72,6.22,4.95,11.46,12.64,1.89,2.78,3.78,4.04,5.32,4.33,2.84,.55,4.23-1.15,4.46-1.64,6.47-13.79-1.52-34.9-2.53-38.44-1.01-3.54,.84-8.43,.84-8.43-14.72-6.07-27.9-14.41-41.31-22.93-11.63,13.15-27.31,9.44-27.31,9.44Zm45.04,13.13c1.43-1.7,7.39-1.89,11.04,.96,4.56,3.56,5.13,8.23,3.03,10.94-2.11,2.71-7.8,2.72-11.88-1.13-3.56-3.35-3.62-9.07-2.18-10.77Z"/><path class="cls-112" d="M235.85,154.5c8.29,2.39,6.66,12.22,6.66,12.22-1.26,3.12-5.14,10.2-9.69,10.96-4.55,.76-8.01-3.96-7.84-10.37,.17-6.41,4.72-14.58,10.87-12.81Z"/><path class="cls-112" d="M218.32,160.39c2.71-.22,5.9-.84,9.19-2.26,.37,9.83,.9,24.53,5.81,39.98-8.77-1.1-14.84-.93-22.25,0,7.78,4.52,14.22,8.96,20.57,14.58-2.16,3.1-8.63,8.26-15.99,11.91-1.06-.36-2.13-.75-3.23-1.2,0,0-2.92-10.18-4.06-25.12-.21-11.3,.72-24.56,3.56-36.93,2.59-.25,4.65-.57,6.41-.97Z"/><path class="cls-110" d="M278.34,181.94c.59,2.07,3.57,10.17,4.65,19.29-3.64-6.28-9.13-7.37-15.27-13.64-.28-.28-.54-.56-.81-.85,1.15-.29,2.12-.87,2.76-1.69,2.11-2.71,1.53-7.38-3.03-10.94-2.61-2.04-6.41-2.52-8.88-2.01-1.57-4.41-1.95-8.12-2.16-10.55,7.58,4.45,15.34,8.56,23.57,11.96,0,0-1.85,4.89-.84,8.43Z"/><path class="cls-111" d="M255.2,193.99c2.29-4.3,8.73-7.75,13.19-4.13,3.09,2.5,3.26,7.29,2.11,10.79,.57-5.1-2.51-12.61-9.02-9.86-5.99,2.53-4.59,9.72-4.59,9.72-4.72,1.77-8.79-2.84-10.07-3.37,3.75-.51,6.62,.17,8.39-3.14Z"/><path class="cls-8" d="M239.16,172.88c.45-.44,.42-.35,0,0h0Z"/><path class="cls-66" d="M229.43,174.95c-5.15-4.49-1.96-17.67-1.72-19.21,.42-2.65,1.45-5.9,3.92-6.85,4.38-1.69,8.77-1.85,25.96,15.01,0,0-13.33,12-18.22,25.07l-2.09-.88,1.8,1.67c-.16,.47-.32,.95-.46,1.43l-2.86-1.33,2.62,2.2c-.17,.64-.31,1.29-.43,1.93-5.14-3.54-8.03-7.56-9.44-13.15,.3-.16,.6-.32,.89-.47l1.47,1.99-.98-2.25c.31-.16,.61-.32,.92-.49l1.32,1.06-.78-1.36c2.05-1.16,4.18-2.63,7.18-5.81,.27-.29,.46-.48,.62-.63,.42-.35,.45-.44,0,0-1.19,1-5.37,3.99-9.73,2.08Z"/><path class="cls-106" d="M279.13,179.41c-1.75,1.98-3.44,3.4-6.11,3.48-2.67,.08-8.32-9.89-15.97-13.57,8.81-2.33,14.82,8.62,22.08,10.09Z"/><path class="cls-19" d="M298.9,195.09c5.56,18.38-38.27-23.94-44.34-32.12,16.44,6.66,21.92,8.01,29.67,10.03,0,0,11.95,13.09,14.67,22.09Z"/><path class="cls-139" d="M261.9,170.85l-.11,.11c1.6,1.64,3.37,3.4,5.25,5.23,.56,.29,1.14,.57,1.73,.86l.74,1.51s.77,.72,1.03,.97c0,0,.07,.07,2.53,2.35,.96,.89,1.93,1.77,2.9,2.64,3.75,1.96,7.6,3.67,10.81,4.55l3.43,4.92c-1.47-.42-3.2-1.02-5.26-1.84,1.62,1.28,3.17,2.46,4.62,3.47,.78,.23,1.5,.42,2.17,.57l1.08,1.55c1.21,.71,2.29,1.25,3.21,1.57l-1.89-2.71c2.62,.27,4.09-.24,4.88-1.07-.04-.15-.07-.29-.12-.44-.25-.82-.58-1.68-.96-2.56,.02,1.28-.79,2.83-5.19,2.06l-3.48-5c1.14,.15,2.15,.15,3.01-.04,1.36-.3,2.32-1.04,2.75-2.32l.16,.15c-1.3-2.12-2.77-4.21-4.47-6.49-.27-.36-.54-.71-.8-1.05-.04,.06-.09,.12-.14,.18l-6.46-5.97-1.18,1.28,5.8,5.36c-1.24,.13-2.87-.03-4.71-.4-.16-.03-.33-.07-.49-.1l-4.53-6.5-1.81,.48,3.74,5.37c-3.3-.93-6.89-2.3-10.07-3.78l-3.1-6.35-2.17-.51,2.74,5.61c-2.46-1.28-4.49-2.58-5.64-3.66Zm22.24,11.37c1.64,.26,3.12,.32,4.3,.15,.38-.05,.73-.13,1.05-.24l4.02,3.71c0,.15-.02,.29-.04,.42-.14,.9-.71,1.4-1.57,1.59-1.02,.23-2.41,.09-4.05-.31l-3.71-5.34Zm-12.89-4.05c3.44,1.49,7.15,2.79,10.42,3.56l3.5,5.02c-3.97-1.39-8.63-3.77-12.74-6.17l-1.18-2.4Z"/><path class="cls-111" d="M239.68,210.36c5.07,.92,9.87,3.01,10.79,3.66,1.64,1.18,1.1,3.05,1.1,3.05-7.42-4.82-26.49-7.19-26.49-7.19,3.23-.15,10.53-.26,14.6,.48Z"/><path class="cls-103" d="M259.83,229.48c.97,9.25-.42,13.6,1.91,13.22,7.17,7.31,7.27,15.45,7.2,20.74-9.2-1.28-12.76-7.54-13.36-14.39-.8-9.14,2.57-18.16-.38-25.84-1.3-3.39-3.62-6.36-6.77-8.52l2.07,.93c2.44,.9,8.35,4.6,9.33,13.85Z"/><path class="cls-73" d="M272.9,232.25c-.28,10.08,7.83,18.92,17,21.86-6.19,6.09-19.33,14.64-28.3,5.53-9.37-9.52,2.93-22.58,11.3-27.4Z"/><path class="cls-106" d="M231.63,148.89c4.38-1.69,8.77-1.85,25.96,15.01,0,0-.58,.53-1.55,1.48-11.51-5.52-14.6-9.68-18.1-10.54-3.06-.75-4.79,.48-10.23,.91,.42-2.65,1.45-5.9,3.92-6.85Z"/><path class="cls-122" d="M285.82,239.73c4.7,6.03,6.52,12.47,4.07,14.39-2.45,1.91-8.26-1.43-12.96-7.46-4.7-6.03-6.52-12.47-4.07-14.39,2.45-1.91,8.26,1.43,12.96,7.46Z"/><path class="cls-121" d="M285.82,239.73c.81,1.05,1.54,2.1,2.18,3.15l1.78,11.32c-1.27,.87-3.36,.46-5.7-.94l-2.5-18.03c1.44,1.23,2.89,2.75,4.25,4.5Z"/><path class="cls-121" d="M280.45,250.5c-.84-.78-1.69-1.65-2.51-2.61l-1.34-15.77c.85,.31,1.77,.78,2.73,1.41l1.11,16.97Z"/><path class="cls-74" d="M284.36,240.35c3.15,4.05,4.93,8.93,3.29,10.21-1.65,1.28-5.96-1.79-9.11-5.84-3.15-4.05-4.93-8.72-3.29-10,1.65-1.28,5.96,1.58,9.11,5.63Z"/><path class="cls-53" d="M232.98,142.48c2.22,3.65,7.24,8.64,9.44,12.31-12.81-3.54-21.07-5.27-32.03-11.13-14.37-7.68,9.44-5.06,22.59-1.18Z"/><path class="cls-138" d="M208.67,141.18l-2.44-.44c.54,.74,1.86,1.7,4.16,2.93,.59,.32,1.18,.62,1.76,.91-.33-.41-.59-.8-.8-1.16l4.75,.86c.08,.23,.18,.47,.28,.71,.31,.7,.73,1.42,1.21,2.13,1.08,.46,2.15,.88,3.21,1.28-1.03-1.15-2.02-2.47-2.66-3.75l6.42,1.16c.15,.5,.36,1.01,.61,1.52,.44,.89,1.01,1.8,1.68,2.7l-1.2,.05c1.65,.53,3.32,1.02,5.04,1.51l7.04-.31-.08-1.73-8.68,.39c-.92-1.1-1.71-2.25-2.26-3.36-.07-.13-.13-.27-.19-.4l9.07,1.64,.25-1.4-.3-.36-1.33-.24,.47-.85c-.31-.4-.6-.8-.88-1.18l-3.69-2.06c-1.89-.48-3.9-.93-5.92-1.32l1.19,.66c-.73,.7-1.09,1.57-1.15,2.55,0,.13-.01,.26,0,.39l-6.75-1.22c-.04-.28-.04-.54,0-.78,.09-.55,.43-1.02,1.12-1.35,.85-.41,2.16-.62,4.06-.55-1.76-.32-3.51-.59-5.18-.81-1.02,.6-1.55,1.45-1.71,2.44-.04,.24-.05,.48-.05,.73l-5.01-.91c-.07-1.63,1.4-2.39,2.37-2.72-1.26-.09-2.4-.12-3.4-.1-.61,.61-1.04,1.41-1.03,2.44Zm17.32,2.54c.05-.71,.37-1.32,1.06-1.75l6.7,3.74-7.74-1.4c-.02-.21-.03-.41-.01-.6Z"/><path class="cls-17" d="M154.59,141.47c-1.35,42.49,4.38,72.83,4.38,72.83-3.48-1.12-6.97-2.25-10.45-3.37-6.13-17.7-8.21-52.27-2.19-71.82,2.75,.79,5.51,1.57,8.26,2.36Z"/><path class="cls-7" d="M168.91,320.94s-2.58,7.74-17.75,4.52l-3.55-9.36s9.68-.97,17.75-2.9l3.55,7.74Z"/><path class="cls-5" d="M176.94,312.51c-10.24,7.3-29.6,10.03-43.18,6.69-15.05-45.31-19.86-63.75-20.98-101.26,8.51-2.43,17.03-4.87,25.54-7.3,10.26,49.9,20.9,68.64,38.62,101.87Z"/><path class="cls-52" d="M150.92,257.57c-10.26-3.91-28.14-.17-33.17,6.67-3.02-14.44-4.43-28.14-4.97-46.31,8.51-2.43,17.03-4.87,25.54-7.3,4.01,19.49,8.08,34.23,12.6,46.93Z"/><path class="cls-65" d="M230.49,202.61c6.66-3.61,11.25-8.28,24.95-3.72,.92,.31,1.32,.93,1.44,1.34,.72,2.45,2.74,4.82,2.74,4.82,.59,5.54-2.78,15.4-6.4,12.7-5.96-4.44-14.42-6.83-23.52-7.33-6.07-.34-8.8-4.33-5.06-10.62-.31,3.43,2.59,4.57,5.85,2.81Z"/><path class="cls-56" d="M259.79,94.1c3.44,0,6.24,2.79,6.24,6.24s-2.79,6.24-6.24,6.24-6.24-2.79-6.24-6.24,2.79-6.24,6.24-6.24Z"/><path class="cls-102" d="M73.75,220.92s22.46,3.53,30.04,6.86c-1.74,9.59-2.44,17.55-.81,32.29-3.97,2.19-8.06,4.59-12.28,7.27-1.72-2.2-20.94-15.43-37.82-15.23,6.1-3.09,11.81-5.6,17.78-7.91-.27-8.22,.67-19.33,3.09-23.27Z"/><path class="cls-54" d="M262.82,105.39c28.07,13.69,22.93,63.39,22.25,71.49-15.02-2.8-46.09-19.83-52.94-30.85-1.52-51.42,26.75-42.55,30.68-40.63Z"/><path class="cls-16" d="M161.67,139.96c12.5,3.63,33.97,12.73,40.8,15.51,6.83,2.78,8.18,4.64,8.18,4.64-5.14,34.98,1.48,62,2.74,64.7-9.18,6.18-30.93-.02-42.52-3.84-6.52-2.15-11.94-3.96-13.24-6.32-8.77-15.85-7.42-47.88-6.58-62.72,.84-14.84,5.4-13.49,10.62-11.97Z"/><path class="cls-21" d="M262.75,292.29c-6.1,.87-12.2,1.74-18.3,2.61,1.41-6.35-4.18-6.89-7.13-9.88,7.02-1,14.04-2,21.06-3,4.15,2.47,5.11,7.17,4.37,10.28Z"/><path class="cls-108" d="M237.53,268.09c1.85-2.19,4.38-4.89,4.38-4.89,1.52,2.95,9.02,2.36,13.99,4.81,4.97,2.44,17.62,7.92,22.42,20.15,3.3,8.39-1.1,16.01-5.73,6.41,.17,6.81-6.11,10.86-7.92,2.53,0,0-1.86,5.87-5.73,5.73-4.69-.17-1.82-6.09-4.72-12.05-.17,3.37-1.6,9.86-5.06,10.2-4.62,.45-3.2-4.38-2.87-7.42,.34-3.03-.08-5.73-6.15-7.92-6.07-2.19-6.32-7.76-5.56-10.71,0,0,1.1-4.64,2.95-6.83Z"/><path class="cls-67" d="M227.8,155.25c-.04,7.7-.55,25.84,4,41.35-8.77-1.1-14.84-.93-22.25,0,7.78,4.52,14.22,8.96,20.57,14.58-2.41,3.47-5.94,7.5-16.99,13.74-4.26-4.95-9.06-37.51-2.74-65.08,7.97-.75,12.74-2.24,17.41-4.6Z"/><path class="cls-68" d="M204.1,167.84c4.21,.77,4.54,4.62,4.36,9.97-2.09,61.15,17.28,69.21,40.88,80-3.1,10.6-15.92,22.29-24.28,25.96-62.38-31.53-42.74-82.7-34.65-104.11,3.73-9.87,8.12-12.84,13.68-11.82Z"/><path class="cls-75" d="M236.69,153.95c8.29,2.39,6.66,12.22,6.66,12.22-1.26,3.12-5.14,10.2-9.69,10.96-4.55,.76-8.01-3.96-7.84-10.37,.17-6.41,4.72-14.58,10.87-12.81Z"/><path class="cls-69" d="M132.33,130.68c13.49,5.4,14.67,9.27,14.67,9.27-4.21,42.32,1.01,61.2,2.36,70.64-8.43,0-1.74,17.7,4.05,38.61-24.53,9.31-84.8,14.67-112.12-12.31,9.44-14.84,23.77-65.42,37.43-93.23,13.66-27.82,40.13-18.38,53.61-12.98Z"/><g><path class="cls-104" d="M154.59,141.47c-.1,3.18-.16,6.3-.19,9.34-1.88,2.17-3.32,4.17-3.65,5.96l-5.02,.04c-.23-.79-1.07-1.6-2.3-2.42,.58-5.62,1.53-10.84,2.89-15.28,2.75,.79,5.51,1.57,8.26,2.36Z"/><path class="cls-105" d="M161.67,139.96c.51,.15,1.03,.3,1.57,.47-1.46,2.19-3.33,4.32-5.13,6.29-.07,.52-.18,.93-.35,1.24-3.08,3.35-6.34,5.96-6.95,8.55,.08-1.66,.16-3.2,.24-4.59,.84-14.84,5.4-13.49,10.62-11.97Z"/><path class="cls-120" d="M113.75,125.19c7.08,1.05,13.69,3.54,18.58,5.5,13.49,5.4,14.67,9.27,14.67,9.27-.61,6.09-1.02,11.69-1.27,16.85-.97-3.31-12.5-5.33-18.37-10.03-4.26-2.47-7.09-5.34-9.08-8.54-1.6-.46-2.79-.62-4.66-1.17,.48-4.22,.94-7.79,.13-11.89Z"/></g><path class="cls-10" d="M217.31,233.55c-4.32,2.65-19.2,12.76-22.14,27.52-6.81-8.2-10.69-16.83-12.61-25.38l31.18-9.92c1.06,2.88,2.26,5.46,3.58,7.78Z"/><path class="cls-70" d="M131.49,131.36c17.87-5.06,29.9-9.65,33.72-6.41,10.05,8.54,25.46,27.99,25.46,27.99l-18.55-8.94-9.1-3.37c-1.81,1.37-3.26,2.61-5.29,4.21,0,.42-.1,.81-.25,1.07-2.08,1.15-3.69,2.13-6.26,3.66-15.26,3.03-35.49-7.5-19.73-18.21Z"/><path class="cls-12" d="M202.47,155.47c6.83,2.78,8.18,4.64,8.18,4.64-5.14,34.98,1.48,62,2.74,64.7-9.18,6.18-30.93-.02-42.52-3.84-6.52-2.15-11.94-3.96-13.24-6.32-.55-1-1.07-2.07-1.54-3.19-2.99-18.24-3.21-46.75,13.06-69.08,12.27,4.28,27.73,10.81,33.33,13.09Z"/><polygon class="cls-59" points="223.4 172.81 224.69 172.8 224.77 175.39 223.46 175.45 223.4 172.81"/><polygon class="cls-62" points="226.03 186.99 224.74 187.19 224.33 184.61 225.62 184.42 226.03 186.99"/><polygon class="cls-61" points="221.25 209.78 222.06 208.77 224.11 210.42 223.29 211.41 221.25 209.78"/><polygon class="cls-63" points="225.02 179.28 223.71 179.39 223.53 176.76 224.83 176.68 225.02 179.28"/><polygon class="cls-64" points="225.14 163.76 223.83 163.62 224.17 161 225.45 161.19 225.14 163.76"/><polygon class="cls-57" points="224.69 171.5 223.4 171.5 223.46 168.87 224.75 168.92 224.69 171.5"/><polygon class="cls-58" points="224.81 167.63 223.51 167.56 223.71 164.93 225 165.05 224.81 167.63"/><polygon class="cls-60" points="223.84 180.68 225.14 180.56 225.44 183.12 224.14 183.29 223.84 180.68"/><polygon class="cls-34" points="208.65 193.08 211.25 192.67 211.43 193.96 208.87 194.37 208.65 193.08"/><polygon class="cls-40" points="216.47 192.09 219.1 191.93 219.16 193.24 216.58 193.39 216.47 192.09"/><polygon class="cls-35" points="212.54 192.49 215.16 192.22 215.28 193.51 212.71 193.8 212.54 192.49"/><polygon class="cls-39" points="220.41 191.88 223.04 191.85 223.04 193.15 220.45 193.18 220.41 191.88"/><polygon class="cls-36" points="220.24 208.98 218.16 207.42 218.95 206.37 221.04 207.96 220.24 208.98"/><polygon class="cls-42" points="217.13 206.63 215.04 205.1 215.78 204.05 217.9 205.6 217.13 206.63"/><polygon class="cls-41" points="207.35 193.33 207.6 194.61 205.07 195.14 204.78 193.87 207.35 193.33"/><polygon class="cls-38" points="208.2 198.91 207.49 199.99 205.28 198.65 205.95 197.53 208.2 198.91"/><polygon class="cls-37" points="211.48 201.06 210.76 202.15 208.58 200.71 209.28 199.63 211.48 201.06"/><polygon class="cls-43" points="214.71 203.29 213.96 204.36 211.82 202.89 212.56 201.8 214.71 203.29"/><polygon class="cls-29" points="204.85 196.87 204.18 197.98 202.28 196.88 203.02 195.8 204.85 196.87"/><polygon class="cls-30" points="203.83 195.46 201.32 196.12 200.95 194.86 203.5 194.19 203.83 195.46"/><polygon class="cls-33" points="224.34 159.72 224.75 157.14 226.04 157.33 225.64 159.91 224.34 159.72"/><path class="cls-32" d="M224.36,191.88s1.74,.06,2.65,.14l.32,1.34s-2.47-.2-2.99-.19l.03-1.29Z"/><polygon class="cls-27" points="215.95 219.64 213.58 220.88 213.03 219.68 215.3 218.51 215.95 219.64"/><polygon class="cls-26" points="225.21 212.22 223.34 214.08 222.45 213.12 224.24 211.33 225.21 212.22"/><polygon class="cls-31" points="224.96 188.48 226.24 188.24 226.76 190.8 225.46 191.06 224.96 188.48"/><polygon class="cls-28" points="222.37 214.96 220.34 216.65 219.52 215.62 221.51 213.98 222.37 214.96"/><polygon class="cls-25" points="219.29 217.45 217.09 218.95 216.4 217.86 218.49 216.4 219.29 217.45"/><polygon class="cls-101" points="163.52 107.25 162.26 109.1 159.05 110.79 116.23 102.61 114.8 100.84 118.17 100.08 163.52 107.25"/><path class="cls-24" d="M230.22,247.69c5.73,4.06,12.25,6.97,19.12,10.12-3.1,10.6-15.92,22.29-24.28,25.96-7.24-3.66-13.36-7.59-18.54-11.7,8.91-6.19,19.34-13.56,23.7-24.38Z"/><polygon class="cls-123" points="160.25 108.45 163.52 107.25 159.64 141.47 156.61 143.16 154.92 140.97 158.29 110.28 160.25 108.45"/><path class="cls-109" d="M237.53,268.09c1.85-2.19,4.38-4.89,4.38-4.89,.92,1.79,4.03,2.27,7.44,2.92-1.13,2.81-4.66,9.02-14.85,13.43-.39-1.71-.25-3.4,.07-4.63,0,0,1.1-4.64,2.95-6.83Z"/><path class="cls-108" d="M134.52,146.87c-7.33-1.94-15.76-7.5-18.88-14.67l7.59,.34s8.94,8.94,11.3,14.33Z"/><path class="cls-55" d="M192.18,150.58c18.71,7.25,18.71,9.44,18.71,9.44-2.13,12.14-3.51,39.17,1.35,59.54,1.28,5.38,3,10.3,5.26,14.35-14.99,7.81-24.56,13.48-35.53,22.3-29-17.05-30.79-91.44-12.21-115.07,0,0,3.71,2.19,22.42,9.44Z"/><path class="cls-119" d="M150.08,139.62s3.58,2.95,3.16,6.07c-.42,3.12-4.13,5.4-16.86,2.36-12.73-3.03,5.1-13.32,13.7-8.43Z"/><path class="cls-23" d="M150.82,240.16c.85,2.91,1.73,5.95,2.58,9.05-24.53,9.31-84.8,14.67-112.12-12.31,1.29-2.03,2.67-4.73,4.13-7.94,36.7,24.55,80.99,16.23,105.4,11.2Z"/><path class="cls-14" d="M236.1,157.47c4.84,1.02,3.73,6.61,3.23,8.44-.7,2.56-3.41,6.52-5.85,6.35-4.53-.32-5.16-11.94,2.74-8.38,1.31,.59,2.36-2.92,.27-4.17-2.09-1.25-5.4-.71-7.36,2.29,.61-2.49,3.07-5.35,6.97-4.53Z"/><path class="cls-136" d="M232.21,136.65c1.03,1.52,2.17,2.98,3.4,4.37-.18,2.78-.28,5.75-.3,8.91,.54,.55,1.11,1.11,1.73,1.68,0-3.14,.07-6.08,.21-8.84,1.96,2,4.11,3.86,6.39,5.58-.12,2.67-.19,5.47-.22,8.42,.56,.41,1.14,.82,1.72,1.23,.02-2.95,.08-5.75,.19-8.41,2.08,1.47,4.25,2.83,6.47,4.09,.7,.39,1.4,.78,2.1,1.15-.09,2.82-.15,5.71-.18,8.65,.57,.34,1.15,.67,1.73,1,.02-2.99,.08-5.91,.16-8.77,3.52,1.77,7.09,3.3,10.55,4.58-.21,3.46-.48,6.64-.79,9.4,.55,.27,1.11,.53,1.66,.78,.32-2.79,.61-6.02,.83-9.56,3.36,1.19,6.58,2.14,9.51,2.89-.16,4.64-.44,8.41-.65,10.7,.57,.2,1.14,.4,1.69,.59,.21-2.2,.51-6.05,.68-10.86,2.55,.6,4.84,1.02,6.72,1.27,.02-.56,.03-1.14,.04-1.73-1.88-.26-4.16-.68-6.72-1.29,.09-3.29,.1-6.97-.02-10.85,2.36,.49,4.56,.84,6.55,1.07-.03-.58-.07-1.17-.11-1.75-1.97-.23-4.16-.59-6.5-1.09-.15-3.63-.43-7.41-.89-11.19,2.03,.17,3.99,.22,5.85,.16-.11-.58-.23-1.15-.35-1.73-1.82,.05-3.74-.01-5.72-.19-.48-3.54-1.12-7.07-1.96-10.46,1.24,.07,2.39,.08,3.44,.03,.4-.02,.78-.04,1.15-.07-.22-.57-.45-1.13-.68-1.69-.17,.01-.35,.02-.53,.03-1.15,.05-2.44,.03-3.83-.07-.94-3.41-2.09-6.67-3.52-9.64,.82,.03,1.62,.02,2.38,0-.44-.58-.9-1.15-1.38-1.71-.62,0-1.25-.02-1.9-.06-.85-1.58-1.79-3.07-2.82-4.44-1.66-1.29-3.46-2.44-5.7-3.52-.45-.2-1.1-.45-1.91-.69,.94,2.17,1.74,4.59,2.43,7.19-1.29-.41-2.56-.91-3.78-1.51,.25-1.97,.51-3.92,.76-5.85-.49-.13-1.03-.26-1.61-.38,0,0-.08-.02-.08-.02-.6-.11-1.23-.21-1.9-.28-.81,.98-1.57,1.99-2.3,3.06-.67-.62-1.29-1.29-1.87-2.01,.76-.44,1.53-.82,2.31-1.16-1.37-.03-2.82,.06-4.32,.36-.2,.04-.39,.08-.59,.13l.12,.19c-1.54,1.07-3,2.38-4.37,3.98-.27-.7-.5-1.43-.69-2.18-.51,.31-1.02,.65-1.52,1.03,.23,.84,.52,1.65,.86,2.43,.04,.09,.08,.18,.12,.27-.98,1.34-1.9,2.85-2.75,4.57-.32,.64-.62,1.3-.92,1.99-.75-1.4-1.37-2.86-1.85-4.41-.41,.6-.8,1.24-1.18,1.92,.6,1.6,1.34,3.12,2.21,4.56-.84,2.3-1.58,4.88-2.21,7.78-1.13-1.63-2.12-3.35-2.93-5.15-.24,.82-.47,1.67-.68,2.57,.91,1.72,1.97,3.35,3.15,4.9-.55,3.01-.98,6.33-1.28,10-1.26-1.54-2.39-3.16-3.38-4.85-.08,.96-.14,1.94-.19,2.95Zm16.91-20.19c-.78,2.03-1.48,4.19-2.1,6.52-.11,.4-.21,.81-.31,1.22-1.94-1.79-3.64-3.77-5.04-5.94,.43-1.11,.89-2.14,1.37-3.1,.66-1.32,1.36-2.52,2.1-3.6,1.07,1.82,2.43,3.45,4,4.9Zm4.08-8.2c-1.25,1.99-2.37,4.13-3.37,6.47-1.43-1.4-2.64-2.97-3.57-4.71,1.42-1.77,2.95-3.18,4.57-4.31,.72,.93,1.52,1.78,2.37,2.55Zm1.35,1.12c.91,.7,1.88,1.32,2.88,1.87-.34,2.69-.66,5.43-.97,8.21-1.89-1-3.68-2.16-5.26-3.49,.99-2.39,2.11-4.57,3.36-6.59Zm3.36,12.72c.77,.34,1.54,.67,2.33,.97,1.71,.66,3.46,1.21,5.2,1.67,.22,1.84,.4,3.72,.56,5.61,.12,1.44,.21,2.88,.29,4.33-3.08-.9-6.15-2.05-9.06-3.46l-.19-.09c.27-3.08,.56-6.08,.88-9.02Zm.43-17.9c-.23,1.71-.46,3.44-.68,5.18-.75-.44-1.47-.93-2.16-1.46,.89-1.3,1.83-2.54,2.84-3.72Zm5.07,9.48l.15,.04c.67,2.88,1.21,5.96,1.64,9.14-1.45-.4-2.91-.88-4.35-1.43-.93-.36-1.85-.74-2.75-1.16,.31-2.78,.63-5.52,.96-8.2,1.41,.65,2.87,1.18,4.34,1.61Zm5.63-.63c-1.32-.16-2.68-.4-4.03-.74-.59-2.36-1.26-4.58-2.04-6.63,2.38,1.97,4.39,4.48,6.07,7.37Zm8.28,36.39c-2.86-.67-5.89-1.53-8.99-2.59,.01-3.24-.04-6.56-.18-9.89,2.8,.7,5.59,1.2,8.29,1.5,.45,3.7,.73,7.4,.88,10.98Zm-9.35,9.67c.18-3.29,.31-6.81,.35-10.44,3.13,1.05,6.19,1.9,9.07,2.56,.13,3.85,.11,7.51,.03,10.8-2.91-.75-6.12-1.72-9.45-2.92Zm-.72-33.94c2.42,.55,4.79,.91,6.96,1.11,.86,3.36,1.51,6.87,2,10.41-2.65-.32-5.4-.83-8.15-1.54-.09-1.66-.19-3.31-.33-4.95-.14-1.69-.3-3.38-.49-5.04Zm-.22-1.83c-.41-3.17-.93-6.24-1.57-9.14,1.56,.34,3.11,.57,4.6,.7,1.49,2.92,2.7,6.17,3.68,9.6-2.11-.22-4.38-.6-6.7-1.16Zm-.43,22.9c-3.46-1.26-6.96-2.77-10.35-4.54,.19-2.97,.4-5.88,.64-8.72,3.06,1.45,6.27,2.62,9.5,3.53,.15,3.27,.21,6.54,.21,9.74Zm-10.93,7.55c.12-3.49,.27-6.89,.47-10.21,3.43,1.75,6.97,3.24,10.45,4.49-.03,3.62-.15,7.13-.32,10.41-3.48-1.31-7.07-2.87-10.6-4.69Zm-.29-23.53c-2.57-1.38-5-2.97-7.19-4.78,.16-.7,.34-1.39,.52-2.07,.54-2.05,1.15-3.96,1.82-5.76,1.74,1.4,3.68,2.61,5.73,3.64-.32,2.93-.61,5.91-.88,8.96Zm-.81,10.52c-.75-.42-1.5-.85-2.23-1.3-2.05-1.24-4.03-2.59-5.9-4.05,.36-2.88,.81-5.56,1.33-8.06,2.28,1.81,4.8,3.39,7.44,4.76-.24,2.82-.46,5.7-.65,8.64Zm-9.15,6.73c.18-3.6,.44-6.95,.78-10.07,1.67,1.26,3.43,2.43,5.24,3.53,.99,.6,1.99,1.17,3.01,1.72-.2,3.31-.36,6.71-.49,10.19-.44-.24-.87-.48-1.31-.73-2.49-1.41-4.93-2.96-7.23-4.65Zm-.56-13.36c-2.19-1.86-4.19-3.87-5.93-6.06,.56-2.91,1.24-5.51,2.02-7.82,1.52,2.14,3.31,4.09,5.32,5.85-.55,2.49-1.02,5.16-1.41,8.03Zm-7.46,6.24c.25-3.7,.63-7.04,1.13-10.06,1.81,2.11,3.86,4.06,6.07,5.86-.37,3.12-.65,6.46-.85,10.06-2.29-1.8-4.43-3.75-6.35-5.85Z"/><path class="cls-137" d="M159.73,191.73c-.69,.03-1.39,.07-2.08,.1,0,.58,.02,1.16,.03,1.74,.7-.04,1.39-.07,2.08-.1,.03,1.55,.1,3.12,.21,4.71,.12,1.71,.25,3.38,.41,5-.71,.11-1.43,.22-2.15,.34,.05,.58,.11,1.15,.17,1.73,.72-.12,1.44-.23,2.15-.34,.4,3.76,.92,7.27,1.54,10.57-.7,.23-1.39,.47-2.09,.72,.11,.58,.23,1.15,.35,1.72,.69-.25,1.39-.49,2.08-.72,.79,3.84,1.74,7.39,2.85,10.67-.69,.34-1.37,.68-2.04,1.03,.18,.56,.37,1.11,.56,1.66,.68-.36,1.37-.7,2.06-1.05,.58,1.6,1.2,3.14,1.86,4.62,.85,1.92,1.77,3.74,2.76,5.48-.7,.48-1.4,.97-2.09,1.47,.28,.52,.57,1.02,.86,1.52,.7-.51,1.4-1,2.11-1.49,1.78,2.93,3.75,5.61,5.92,8.09-.62,.57-1.23,1.16-1.83,1.76,.4,.42,.81,.83,1.23,1.22,.58-.57,1.16-1.14,1.76-1.69,1.52,1.65,3.13,3.21,4.83,4.7,.47-.37,.93-.73,1.39-1.09-1.74-1.52-3.39-3.1-4.93-4.78,1.76-1.55,3.58-3.02,5.44-4.39,1.42,1.88,2.96,3.68,4.62,5.36,.48-.34,.96-.68,1.44-1.01-1.68-1.69-3.23-3.48-4.65-5.37,2-1.42,4.02-2.74,6.03-3.96,1.29,2.55,2.49,4.59,3.47,6.1,.48-.31,.97-.62,1.46-.92-.96-1.49-2.15-3.51-3.44-6.06,2.07-1.22,4.11-2.33,6.08-3.36,.88,2.02,1.83,4.05,2.89,6.09,.5-.29,1-.58,1.51-.87-1.04-2.02-1.98-4.02-2.84-6.02,2.2-1.11,4.3-2.11,6.22-2.99,.76,1.93,1.59,3.84,2.51,5.73,.5-.27,1.01-.55,1.53-.82-.9-1.85-1.71-3.73-2.45-5.63,1.15-.52,2.22-.99,3.19-1.42,.88-.39,1.69-.75,2.4-1.07-.21-.53-.42-1.08-.61-1.63-.74,.33-1.57,.7-2.49,1.11-.95,.42-1.99,.88-3.11,1.38-.73-1.98-1.38-3.98-1.96-5.99,2.43-.85,4.44-1.49,5.87-1.92-.15-.56-.29-1.12-.43-1.68-1.44,.43-3.46,1.07-5.91,1.93-.49-1.84-.93-3.68-1.31-5.52,2.64-.58,4.77-.99,6.17-1.24-.11-.57-.21-1.13-.31-1.71-1.41,.26-3.55,.67-6.2,1.25-.36-1.91-.67-3.82-.93-5.72,2.25-.22,4.38-.41,6.37-.58-.07-.57-.14-1.15-.21-1.73-2,.17-4.13,.36-6.38,.58-.22-1.82-.4-3.63-.54-5.43,2.85,.05,5.03,.14,6.46,.23-.05-.58-.1-1.17-.14-1.75-1.47-.08-3.65-.17-6.45-.22-.12-1.83-.2-3.65-.26-5.44,2.76,.26,4.94,.51,6.41,.69-.03-.59-.05-1.17-.07-1.76-1.51-.18-3.68-.42-6.38-.68-.04-2.25-.03-4.46,0-6.63,2.46,.49,4.57,.94,6.25,1.31,0-.59,0-1.19,0-1.78-1.7-.37-3.79-.81-6.21-1.29,.06-2.17,.16-4.29,.27-6.35,1.95,.61,3.97,1.25,6.05,1.94,.02-.61,.04-1.21,.07-1.8-2.07-.68-4.07-1.32-6.01-1.92,.13-2,.27-3.94,.42-5.8,1.99,.78,3.96,1.58,5.89,2.39,.04-.62,.09-1.23,.14-1.82-1.93-.81-3.89-1.6-5.88-2.37,.12-1.42,.24-2.78,.35-4.09l.18-2.06c1.98,.96,3.95,1.95,5.89,2.96,.07-.63,.15-1.25,.23-1.84-1.96-1.02-3.95-2.01-5.96-2.97,.14-1.74,.27-3.36,.35-4.84-.52-.26-1.09-.53-1.7-.81-.07,1.46-.19,3.09-.33,4.86-2.1-.98-4.2-1.93-6.3-2.84,.1-1.72,.14-3.34,.1-4.85-.57-.23-1.15-.47-1.76-.71,.08,1.49,.06,3.1-.03,4.83-2.37-1-4.72-1.95-7.03-2.84,.36-1.56,.67-3.01,.91-4.4l-1.65-.65c-.23,1.38-.54,2.85-.9,4.43-.7-.26-1.39-.52-2.08-.77-1.73-.63-3.43-1.22-5.08-1.77,.49-1.55,.99-3.06,1.52-4.53-.56-.23-1.1-.45-1.61-.67-.54,1.51-1.06,3.07-1.56,4.66-2.39-.76-4.67-1.43-6.82-2,.85-2.03,1.67-3.79,2.39-5.26-.64-.29-1.16-.54-1.57-.73-.76,1.55-1.62,3.42-2.52,5.56-.88-.22-1.73-.41-2.55-.59-.27,.52-.54,1.06-.79,1.6,.86,.18,1.75,.38,2.68,.61-.98,2.45-1.99,5.22-2.95,8.26-.99-.19-1.96-.36-2.91-.52-.17,.55-.33,1.11-.49,1.68,.95,.16,1.91,.33,2.87,.58-.81,2.69-1.57,5.58-2.24,8.65-.9-.08-1.8-.16-2.69-.23-.1,.57-.2,1.14-.3,1.72,.88,.07,1.75,.14,2.63,.23-.66,3.25-1.21,6.69-1.6,10.29-.76,0-1.53-.01-2.29,0-.04,.58-.09,1.15-.13,1.74,.75,0,1.5,0,2.25,0-.3,3.31-.47,6.75-.45,10.3Zm3.96-22.15c2.83,.29,5.71,.67,8.69,1.14-.49,3.1-.89,6.26-1.18,9.44-3-.21-6.04-.36-9.09-.43,.39-3.55,.94-6.94,1.59-10.15Zm17.6,22.01c-2.87-.08-5.88-.13-8.97-.13,.04-3.15,.2-6.31,.45-9.43,2.91,.23,5.76,.52,8.52,.85-.1,2.73-.1,5.63,0,8.72Zm-8.37-11.3c.29-3.13,.68-6.24,1.16-9.29,1.52,.26,3.06,.54,4.65,.85,1.11,.22,2.24,.45,3.38,.7-.33,2.64-.6,5.49-.75,8.57-2.74-.32-5.56-.61-8.44-.84Zm1.44-11c.44-2.63,.95-5.21,1.52-7.74,2.19,.57,4.42,1.19,6.66,1.84,.34,.1,.69,.2,1.03,.31-.45,2.2-.87,4.57-1.24,7.14-1.11-.24-2.2-.47-3.28-.68-1.6-.32-3.16-.6-4.7-.86Zm19.83,48.01c-2.33,.63-4.79,1.34-7.34,2.14-.63-2.48-1.21-5.12-1.72-7.92l.25-.04c2.57-.46,5.09-.85,7.54-1.19,.34,2.31,.76,4.65,1.27,7.02Zm-.71-23.39c2.77,.18,5.28,.38,7.5,.58,.05,1.84,.13,3.7,.26,5.58-2.22-.02-4.76,0-7.58,.08-.12-2.12-.17-4.2-.18-6.24Zm-8.4,15.85l-.25,.04c-.4-2.37-.75-4.86-1.03-7.46,2.93-.19,5.68-.32,8.22-.41,.15,2.17,.36,4.38,.65,6.62-2.47,.35-5.01,.74-7.6,1.2Zm-1.45-9.15c-.25-2.52-.42-4.93-.53-7.23,3.06,.11,5.95,.25,8.64,.41,0,2.1,.06,4.23,.18,6.41-2.56,.09-5.33,.22-8.29,.41Zm-.6-8.97c-.11-3.04-.1-5.89,0-8.57,1.38,.17,2.73,.35,4.05,.54,1.71,.24,3.36,.49,4.96,.75-.15,2.49-.25,5.06-.28,7.7-2.71-.16-5.64-.31-8.72-.42Zm.79-18.7c2.86,.65,5.84,1.39,8.98,2.24-.25,2.39-.47,4.87-.65,7.44-1.56-.25-3.17-.49-4.83-.73-1.38-.19-2.78-.38-4.22-.56,.15-3.01,.4-5.8,.72-8.4Zm.23-1.73c.35-2.52,.77-4.85,1.2-7.01,2.81,.86,5.64,1.78,8.46,2.76l-.15,1.27c-.19,1.68-.39,3.41-.58,5.2-3.13-.84-6.09-1.58-8.94-2.23Zm9.71,13.44c2.6,.43,5.02,.87,7.21,1.29-.05,2.22-.06,4.5-.02,6.81-2.21-.2-4.72-.39-7.46-.58,.02-2.57,.12-5.09,.26-7.52Zm.11-1.74c.17-2.5,.39-4.92,.63-7.25,2.19,.61,4.45,1.27,6.81,1.99-.12,2.12-.22,4.3-.29,6.54-2.18-.42-4.57-.85-7.14-1.27Zm7.5,18.91c.14,1.86,.33,3.74,.56,5.62-2.4,.25-4.91,.54-7.51,.89-.28-2.18-.49-4.33-.64-6.44,2.83-.07,5.38-.09,7.59-.07Zm-6.79,17.18c.53,2.23,1.14,4.49,1.86,6.78-2.15,.9-4.42,1.9-6.75,2.99-.83-2.33-1.64-4.88-2.38-7.65,2.52-.79,4.97-1.49,7.28-2.12Zm-6.46,10.51c-1.09,.53-2.2,1.07-3.31,1.64-1.49,.76-3,1.56-4.5,2.4-1.34-2.82-2.49-5.77-3.47-8.81,2.97-1.14,5.94-2.17,8.81-3.1,.77,2.84,1.61,5.47,2.47,7.87Zm-11.8-6.42c-.9-3-1.63-6.1-2.21-9.25,3.15-.77,6.27-1.43,9.32-2.01,.53,2.88,1.13,5.59,1.78,8.13-2.9,.93-5.89,1.97-8.89,3.12Zm-2.51-10.96c-.32-1.93-.59-3.88-.8-5.85-.11-.99-.2-1.97-.28-2.97,3.28-.35,6.4-.63,9.36-.84,.29,2.67,.65,5.22,1.06,7.66-3.05,.57-6.17,1.23-9.32,2Zm-1.22-10.54c-.19-2.78-.28-5.58-.28-8.39,3.12,0,6.15,.05,9.05,.14,.11,2.36,.29,4.83,.54,7.41-2.94,.21-6.05,.49-9.31,.84Zm-6.31-42.26c2.56,.51,5.21,1.12,7.93,1.8-.58,2.58-1.1,5.21-1.55,7.89-2.95-.47-5.8-.84-8.6-1.13,.65-2.95,1.38-5.73,2.16-8.33l.07-.23Zm10.43-7.79c-.76,2.55-1.47,5.19-2.11,7.9-2.67-.67-5.28-1.26-7.8-1.77,.96-3.02,1.96-5.75,2.94-8.16,2.19,.57,4.52,1.26,6.98,2.04Zm8.93,3.12l-.31,1.28c-.45,1.87-.93,3.88-1.4,6.06l-.9-.27c-2.28-.67-4.54-1.29-6.76-1.87,.63-2.67,1.33-5.27,2.08-7.79,1.63,.54,3.3,1.12,5,1.74,.75,.27,1.51,.55,2.28,.84Zm8.95,3.59c-.16,2.16-.4,4.48-.67,6.95-2.77-.95-5.55-1.86-8.31-2.7,.48-2.22,.96-4.27,1.42-6.17l.25-1.06c2.4,.93,4.85,1.92,7.31,2.97Zm.81,9.3c2.17,.77,4.32,1.56,6.46,2.38-.15,1.9-.3,3.88-.44,5.93-2.33-.71-4.57-1.36-6.73-1.96,.2-1.88,.41-3.71,.61-5.47l.1-.88Zm7.15-5.73c-.07,.87-.15,1.78-.23,2.71-.1,1.16-.21,2.36-.31,3.59-2.12-.81-4.26-1.59-6.41-2.35,.27-2.4,.51-4.68,.68-6.81,2.09,.91,4.19,1.86,6.27,2.85Zm.57,53.26c-2.16,.49-4.6,1.08-7.23,1.77-.5-2.3-.91-4.57-1.23-6.81,2.6-.35,5.1-.64,7.5-.89,.27,1.97,.59,3.95,.96,5.92Zm1.7,7.43c-2.04,.73-4.31,1.6-6.76,2.59-.68-2.21-1.28-4.4-1.79-6.56,2.61-.69,5.03-1.27,7.18-1.76,.4,1.91,.85,3.82,1.36,5.73Zm-6.23,4.25c2.42-.99,4.68-1.84,6.7-2.57,.59,2.05,1.26,4.1,2.01,6.12-1.94,.89-4.05,1.89-6.28,3.01-.91-2.2-1.72-4.39-2.43-6.56Zm-8.3,3.64c2.31-1.09,4.55-2.08,6.69-2.97,.73,2.21,1.56,4.44,2.49,6.69-2,1.03-4.07,2.17-6.16,3.4-.99-2.07-2.01-4.44-3.02-7.12Zm-9.21,4.71c1.52-.84,3.03-1.65,4.53-2.42,1.05-.54,2.09-1.05,3.12-1.55,1.03,2.73,2.08,5.15,3.09,7.26-2.09,1.27-4.2,2.64-6.29,4.13-1.66-2.34-3.14-4.82-4.45-7.42Zm-8.29,5.03c2.23-1.48,4.5-2.87,6.78-4.18,1.35,2.65,2.86,5.18,4.56,7.58-1.9,1.41-3.77,2.9-5.57,4.5-2.11-2.43-4.03-5.04-5.77-7.9Zm-5.36-11.38c2.56-1.22,5.18-2.34,7.8-3.39,1.01,3.12,2.2,6.14,3.58,9.03-2.31,1.32-4.62,2.73-6.89,4.24-.93-1.65-1.81-3.39-2.62-5.21-.66-1.49-1.29-3.05-1.87-4.67Zm-3.33-12.1c2.78-.89,5.57-1.69,8.34-2.4,.6,3.22,1.36,6.38,2.28,9.46-2.63,1.04-5.27,2.18-7.85,3.4-1.07-3.22-1.99-6.69-2.76-10.46Zm-1.82-12.01c3.01-.45,5.92-.83,8.73-1.15,.08,.99,.18,1.98,.28,2.96,.22,2.05,.5,4.08,.84,6.08-2.78,.71-5.58,1.5-8.37,2.4-.6-3.21-1.1-6.64-1.49-10.29Zm-.77-11.25c3.09-.12,6.13-.18,9.09-.2,0,2.87,.09,5.73,.29,8.57-2.82,.32-5.75,.7-8.78,1.15-.15-1.58-.28-3.2-.39-4.86-.11-1.57-.17-3.13-.21-4.67Zm-.02-1.74c-.01-3.51,.15-6.92,.45-10.2,3.06,.07,6.12,.22,9.12,.43-.26,3.17-.41,6.37-.45,9.57-2.97,.02-6.02,.08-9.12,.2Z"/><polygon class="cls-114" points="160.32 108.43 156.61 143.16 113.11 134.39 114.8 100.84 160.32 108.43"/><g><g><path class="cls-107" d="M116.98,109.36c.8,0,1.45,.62,1.45,1.38s-.65,1.37-1.45,1.37-1.45-.62-1.45-1.37,.65-1.38,1.45-1.38Z"/><path class="cls-135" d="M114.48,106.99l-.04,.87c-.58,.03-1.28,.34-1.58,.86-.48,.83,.62,1.82,1.3,2.08,.54,.21,1.15,.21,1.7,.02,.55-.19,1.05-.57,1.36-1.11,.06-.11,.09-.16,.14-.29,.27,.07,.54,.23,.73,.46-.03,.08-.04,.11-.12,.26-.42,.74-1.09,1.25-1.83,1.5-.74,.25-1.56,.25-2.3-.03-1.2-.46-2.51-1.98-1.74-3.32,.45-.78,1.49-1.25,2.37-1.29Z"/></g><g><path class="cls-107" d="M117.22,104.56c.8,0,1.45,.62,1.45,1.37s-.65,1.38-1.45,1.38-1.45-.62-1.45-1.38,.65-1.37,1.45-1.37Z"/><path class="cls-135" d="M114.73,102.18l-.04,.87c-.58,.03-1.28,.34-1.58,.86-.48,.83,.62,1.82,1.3,2.08,.54,.21,1.15,.21,1.7,.02,.55-.19,1.05-.57,1.36-1.11,.06-.11,.09-.16,.14-.29,.27,.07,.54,.23,.73,.46-.03,.08-.04,.11-.12,.26-.42,.74-1.09,1.25-1.83,1.5-.74,.25-1.56,.25-2.3-.03-1.2-.46-2.51-1.98-1.74-3.32,.45-.78,1.49-1.25,2.37-1.29Z"/></g><g><path class="cls-107" d="M116.49,119c.8,0,1.45,.62,1.45,1.37s-.65,1.38-1.45,1.38-1.45-.62-1.45-1.38,.65-1.37,1.45-1.37Z"/><path class="cls-135" d="M114,116.63l-.04,.87c-.58,.03-1.28,.34-1.58,.86-.48,.83,.62,1.82,1.3,2.08,.54,.21,1.15,.21,1.7,.02,.55-.19,1.05-.57,1.36-1.11,.06-.11,.09-.16,.14-.29,.27,.07,.54,.23,.73,.46-.03,.08-.04,.11-.12,.26-.42,.74-1.09,1.25-1.83,1.5-.74,.25-1.56,.25-2.3-.03-1.2-.46-2.51-1.98-1.74-3.32,.45-.78,1.49-1.25,2.37-1.29Z"/></g><g><path class="cls-107" d="M116.73,114.2c.8,0,1.45,.62,1.45,1.37s-.65,1.38-1.45,1.38-1.45-.62-1.45-1.38,.65-1.37,1.45-1.37Z"/><path class="cls-135" d="M114.24,111.82l-.04,.87c-.58,.03-1.28,.34-1.58,.86-.48,.83,.62,1.82,1.3,2.08,.54,.21,1.15,.21,1.7,.02,.55-.19,1.05-.57,1.36-1.11,.06-.11,.09-.16,.14-.29,.27,.07,.54,.23,.73,.46-.03,.08-.04,.11-.12,.26-.42,.74-1.09,1.25-1.83,1.5-.74,.25-1.56,.25-2.3-.03-1.2-.46-2.51-1.98-1.74-3.32,.45-.78,1.49-1.25,2.37-1.29Z"/></g><g><path class="cls-107" d="M116,128.84c.8,0,1.45,.62,1.45,1.38s-.65,1.37-1.45,1.37-1.45-.62-1.45-1.37,.65-1.38,1.45-1.38Z"/><path class="cls-135" d="M113.5,126.47l-.04,.87c-.58,.03-1.28,.34-1.58,.86-.48,.83,.62,1.82,1.3,2.08,.54,.21,1.15,.21,1.7,.02,.55-.19,1.05-.57,1.36-1.11,.06-.11,.09-.16,.14-.29,.27,.07,.54,.23,.73,.46-.03,.08-.04,.11-.12,.26-.42,.74-1.09,1.25-1.83,1.5-.74,.25-1.56,.25-2.3-.03-1.2-.46-2.51-1.98-1.74-3.32,.45-.78,1.49-1.25,2.37-1.29Z"/></g><g><path class="cls-107" d="M116.24,124.04c.8,0,1.45,.62,1.45,1.37s-.65,1.38-1.45,1.38-1.45-.62-1.45-1.38,.65-1.37,1.45-1.37Z"/><path class="cls-135" d="M113.75,121.66l-.04,.87c-.58,.03-1.28,.34-1.58,.86-.48,.83,.62,1.82,1.3,2.08,.54,.21,1.15,.21,1.7,.02,.55-.19,1.05-.57,1.36-1.11,.06-.11,.09-.16,.14-.29,.27,.07,.54,.23,.73,.46-.03,.08-.04,.11-.12,.26-.42,.74-1.09,1.25-1.83,1.5-.74,.25-1.56,.25-2.3-.03-1.2-.46-2.51-1.98-1.74-3.32,.45-.78,1.49-1.25,2.37-1.29Z"/></g></g><path class="cls-116" d="M125.37,113.92c2.67-6.49,10.06-7.6,8.26,1.01,0,0,4.12-4.73,7.59-2.94,4.2,2.17-.86,6.51-.7,13.37,1.55-3.1,5.54-8.6,8.83-7.43,4.39,1.56,1.1,5.5-.46,8.21-1.56,2.71-1.38,6.05,2.07,10.93,1.25,1.77,1.66,3.57,1.58,5.27l-30.44-6.13c-2.79-5.07-4.96-11.59-4.6-18.71,.47-9.31,7.63-14.59,7.87-3.57Z"/><path class="cls-108" d="M124.12,113.88c2.67-6.27,10.06-7.35,8.26,.98,0,0,4.12-4.57,7.59-2.84,4.2,2.1-.86,6.3-.7,12.93,1.55-3,5.54-8.31,8.83-7.19,4.39,1.5,1.1,5.32-.46,7.94-1.56,2.62-2.56,5.52,2.07,10.57,4.63,5.04,1.73,9.64,.62,12.25-5.49,1.85-16.19,.2-21.77-3.81-4.5-3.23-13.01-14.26-12.31-27.37,.48-9,7.63-14.11,7.87-3.46Z"/><path class="cls-71" d="M231.21,247.77c7.42,5.01,12.39,6.95,18.55,9.86-3.96,13.74-18.7,24.59-24.7,26.72-5.83-2.84-13.38-7.05-18.97-11.13,13.91-7.08,23.35-17.72,25.12-25.46Z"/><path class="cls-72" d="M151.21,240.44c.87,2.98,1.71,5.97,2.62,8.95-3.22,1.42-20.5,8.33-53.88,7.82-33.38-.51-53.05-14.09-59.35-20.15l4.45-7.94c37.22,29.33,95.54,14.37,106.15,11.31Z"/><path class="cls-22" d="M267.16,237.64c1.22-1.12,2.83-2.91,3.26,0,.2,1.38,.65,3.09,1,4.02,1.26,3.32-4.09,3.17-6.95,4.93s-6.87,5.46-3.58-.95c1.83-3.57,4.37-6.25,6.28-8Z"/><path class="cls-134" d="M268.98,282.97c2.49,3.43,3.61,7.26,3.49,11.34,0-.03-2.27-10.13-10.22-15.65,2.61-.66,5.22,2.23,6.73,4.31Z"/><path class="cls-134" d="M260.47,283.53c2.41,3.05,4.8,7.64,4.15,13.35,0-.03,.16-9.49-9.2-15.94,1.79-.82,3.41,.51,5.05,2.59Z"/><path class="cls-134" d="M254.18,290.67c-.25-1.77-.96-5.97-4.53-7.91,4.02-.98,4.76,4.98,4.53,7.91Z"/><path class="cls-134" d="M126.97,133.1c-2.66-.43-3.91-4.11-4.47-6.62-.92-4.14-.44-8.1,1.3-11.79,0,.03-1.94,10.2,3.17,18.42Z"/><path class="cls-134" d="M134.14,133.72c-1.97,.04-2.92-1.82-3.61-4.38-1-3.76-1.38-8.92,1.48-13.9-.01,.02-3.91,8.65,2.12,18.28Z"/><path class="cls-134" d="M140.16,134.34c-4.08-.69-2.4-6.46-1.03-9.06-.47,1.72-1.49,5.86,1.03,9.06Z"/><path class="cls-13" d="M181.38,322.58c6.89,1.57,16.62,3.82,24.88,7.98,10.71,5.39,11.04,7.76,8.18,8.43-2.87,.67-8.43,.67-16.35-5.23-6.22-4.63-13.8-7.67-18.98-9.67-6.12-2.35-4.4-3.04,2.29-1.52Z"/><path class="cls-118" d="M3.02,287.6c3.32-1.77,7.68-2.01,11.3-1.22,1.94,.67-.76,1.69-2.95,2.19-.75,.17-2.71,.48-4.74,.68-3.86,.39-5.39-.7-3.61-1.65Z"/></g></g><text class="cls-2" transform="translate(8.55 52.62)"><tspan x="0" y="0">It would seem </tspan><tspan class="cls-1" x="338.51" y="0">w</tspan><tspan x="380.63" y="0">e h</tspan><tspan class="cls-132" x="446.57" y="0">av</tspan><tspan class="cls-131" x="496.91" y="0">e...</tspan></text><text class="cls-2" transform="translate(338.25 124.19)"><tspan x="0" y="0">a missing page!</tspan></text><text class="cls-3" transform="translate(445.08 209.46) rotate(-16.02)"><tspan x="0" y="0">dun!</tspan></text><text class="cls-4" transform="translate(516.09 216.26) rotate(6.73)"><tspan x="0" y="0">dun!</tspan></text><text class="cls-3" transform="translate(449.95 251.85) rotate(3.99)"><tspan x="0" y="0">dunnnn!</tspan></text></svg>