<?xml version="1.0" encoding="UTF-8"?><svg id="a" xmlns="http://www.w3.org/2000/svg" viewBox="0 0 164.61 188.64"><defs><style>.b{fill:#fff;}</style></defs><polygon class="b" points="0 103.35 2.36 103.35 2.36 49.99 51.47 49.99 51.47 47.63 0 47.63 0 103.35"/><polygon class="b" points="128.02 186.28 78.91 186.28 78.91 188.64 130.38 188.64 130.38 141.43 128.02 141.43 128.02 186.28"/><path class="b" d="M140.01,95.79c-.14,2.42-1.16,4.54-2.17,6.64-4.12,8.56-9.56,16.22-15.99,23.19-6.93,7.51-14.63,14.12-23.04,19.92-9.13,6.31-18.76,11.73-28.89,16.25-.29,.13-.55,.5-1.06,.19,1.83-2.51,3.76-4.94,5.32-7.61,3.74-6.4,6.4-13.1,6.03-20.7-.22-4.5-1.79-8.62-3.42-12.71-1.72-4.32-3.7-8.53-5.35-12.87-3.4-8.96,.45-15.18,8.18-18.7,7.99-3.64,16.44-6.09,24.64-9.21,11.28-4.28,22.11-9.4,31.54-17.08,2.61-2.12,5.07-4.41,7.29-6.94,.26-.3,.44-.72,1.03-.73,.07,.98-.46,1.79-.79,2.62-4.33,10.78-10.25,20.56-18.57,28.74-5.29,5.2-11.38,9.44-17.31,13.85-4.19,3.11-8.55,6-12.34,9.64-1.17,1.12-1.94,2.51-2.9,3.76-1.57,2.03,1.7,6.13,4.36,6.23,3.49,.13,6.75-.59,9.96-1.78,11.29-4.19,21.48-10.18,30.03-18.75,1.23-1.24,2.31-2.63,3.47-3.95Z"/><path class="b" d="M164.61,0c-.71,7.51-4.84,18.74-9.81,27.14-8.85,14.97-21.36,26.01-36.42,34.46-14.33,8.05-29.37,14.6-44.27,21.46-3.9,1.79-7.7,3.77-11.19,6.31-5.83,4.25-7.41,8.8-5.36,15.77,1.73,5.88,4.87,11.14,7.52,16.61,2.17,4.49,4.13,9.05,4.94,14.02,1.43,8.82-1.69,16.16-7.47,22.55-9.97,11-21.5,19.93-35.13,25.99-2.38,1.06-.85,.35-5,1.96,5.79-4.88,11.35-9.92,16.04-15.86,2.28-2.89,4.25-5.97,5.84-9.3,3.39-7.07,3.23-13.96-.56-20.89-3.75-6.85-8.74-12.83-13.02-19.3-3.95-5.98-7.72-12.02-8.95-19.28-.97-5.7,.42-10.83,3.53-15.56,3.55-5.4,8.59-9.23,13.93-12.64,12.79-8.14,26.72-14.03,40.55-20.08,18.27-7.99,36.8-15.46,54.16-25.39,9.26-5.3,18.11-11.17,25.13-19.38,2.19-2.56,3.94-5.41,5.54-8.61"/></svg>